<?xml version="1.0" standalone="no"?>
<!DOCTYPE svg PUBLIC "-//W3C//DTD SVG 1.1//EN" "http://www.w3.org/Graphics/SVG/1.1/DTD/svg11.dtd" >
<svg xmlns="http://www.w3.org/2000/svg">
<metadata></metadata>
<defs>
<font id="proxima_nova_extra_condenLtIt" horiz-adv-x="753" >
<font-face units-per-em="2048" ascent="1618" descent="-430" />
<missing-glyph horiz-adv-x="360" />
<glyph unicode="&#xfb01;" horiz-adv-x="784" d="M41 0l199 899h-99l19 90h100l41 193q45 204 213 204q45 0 90 -20l-43 -84q-20 14 -45 14q-90 0 -115 -114l-41 -193h140l-21 -90h-137l-201 -899h-100zM451 0l219 989h100l-219 -989h-100zM688 1217q0 38 28.5 62t61.5 24q30 0 51 -20t21 -48q0 -39 -28 -63.5t-60 -24.5 q-31 0 -52.5 20.5t-21.5 49.5z" />
<glyph unicode="&#xfb02;" horiz-adv-x="784" d="M41 0l199 899h-99l19 90h100l41 193q45 204 213 204q45 0 90 -20l-43 -84q-20 14 -45 14q-90 0 -115 -114l-41 -193h140l-21 -90h-137l-201 -899h-100zM451 0l301 1366h100l-301 -1366h-100z" />
<glyph unicode="&#xfb03;" horiz-adv-x="1220" d="M41 0l199 899h-99l19 90h100l41 193q21 95 74.5 149.5t138.5 54.5q39 0 76.5 -15.5t54.5 -41.5l-57 -76q-25 43 -72 43q-90 0 -115 -114l-41 -193h140l-21 -90h-137l-201 -899h-100zM477 0l199 899h-98l18 90h100l41 193q45 204 213 204q45 0 90 -20l-43 -84 q-20 14 -45 14q-89 0 -114 -114l-41 -193h139l-21 -90h-137l-200 -899h-101zM887 0l219 989h100l-219 -989h-100zM1124 1217q0 38 28.5 62t61.5 24q30 0 51 -20t21 -48q0 -39 -28 -63.5t-60 -24.5q-31 0 -52.5 20.5t-21.5 49.5z" />
<glyph unicode="&#xfb04;" horiz-adv-x="1220" d="M41 0l199 899h-99l19 90h100l41 193q21 95 74.5 149.5t138.5 54.5q39 0 76.5 -15.5t54.5 -41.5l-57 -76q-25 43 -72 43q-90 0 -115 -114l-41 -193h140l-21 -90h-137l-201 -899h-100zM477 0l199 899h-98l18 90h100l41 193q45 204 213 204q45 0 90 -20l-43 -84 q-20 14 -45 14q-89 0 -114 -114l-41 -193h139l-21 -90h-137l-200 -899h-101zM887 0l301 1366h100l-301 -1366h-100z" />
<glyph horiz-adv-x="0" />
<glyph horiz-adv-x="682" />
<glyph unicode=" "  horiz-adv-x="360" />
<glyph unicode="&#x09;" horiz-adv-x="360" />
<glyph unicode="&#xa0;" horiz-adv-x="360" />
<glyph unicode="!" horiz-adv-x="444" d="M39 59q0 39 27.5 67t66.5 28q34 0 57 -23t23 -57q0 -39 -27.5 -66.5t-66.5 -27.5q-34 0 -57 22.5t-23 56.5zM150 352l198 1014h131l-252 -1014h-77z" />
<glyph unicode="&#x22;" horiz-adv-x="641" d="M242 881q53 413 53 419q3 39 25 62.5t57 23.5q27 0 45 -18t18 -47q0 -9 -10 -39l-131 -401h-57zM506 881q53 413 53 419q3 39 25 62.5t57 23.5q27 0 45.5 -18t18.5 -47q0 -6 -11 -39l-131 -401h-57z" />
<glyph unicode="#" horiz-adv-x="837" d="M-16 0l174 383h-150l35 80h150l202 440h-151l32 80h152l174 383h92l-174 -383h152l172 383h90l-172 -383h145l-30 -80h-152l-201 -440h154l-35 -80h-156l-172 -383h-92l176 383h-151l-172 -383h-92zM285 463h147l203 440h-150z" />
<glyph unicode="$" horiz-adv-x="663" d="M-29 109l78 81q25 -47 70.5 -78t95.5 -36l131 590q-33 46 -44.5 62t-37.5 59t-36.5 71t-20.5 70t-10 84q0 151 93 258t218 116l41 187h92l-43 -193q100 -20 158 -96l-70 -82q-44 62 -111 80l-122 -553q63 -89 98 -167t35 -169q0 -161 -84.5 -276t-214.5 -137l-41 -185 h-92l41 182q-71 9 -131.5 44.5t-92.5 87.5zM311 92q70 30 116 106t46 185q0 87 -57 182zM311 1024q0 -84 72 -195l100 455q-77 -19 -124.5 -92t-47.5 -168z" />
<glyph unicode="%" horiz-adv-x="1150" d="M152 0l856 1366h75l-858 -1366h-73zM178 961q0 174 91.5 299.5t203.5 125.5q102 0 153.5 -70.5t51.5 -174.5q0 -174 -91.5 -299t-203.5 -125q-102 0 -153.5 70t-51.5 174zM266 967q0 -174 119 -174q76 0 140.5 100.5t64.5 241.5q0 176 -119 176q-76 0 -140.5 -101.5 t-64.5 -242.5zM555 221q0 174 91 299t204 125q101 0 152 -70t51 -174q0 -174 -91.5 -300t-203.5 -126q-101 0 -152 71t-51 175zM643 227q0 -176 117 -176q77 0 141 101.5t64 242.5q0 87 -30.5 130.5t-86.5 43.5q-77 0 -141 -100.5t-64 -241.5z" />
<glyph unicode="&#x26;" horiz-adv-x="776" d="M33 215q0 95 22.5 176t68 147.5t87 111t106.5 102.5q-12 102 -12 198q0 112 37 213.5t97.5 162t125.5 60.5q150 0 150 -194q0 -51 -9.5 -96.5t-30.5 -86t-42.5 -73t-57 -69t-62 -61t-68.5 -61.5q-17 -15 -25 -22q6 -38 43 -201q7 -30 49 -196q64 113 143 307l84 -41 q-100 -240 -190 -377q23 -69 84 -215h-113q-30 84 -41 121q-123 -146 -246 -146q-90 0 -145 63.5t-55 176.5zM141 221q0 -71 29.5 -113t77.5 -42q91 0 198 153q-37 108 -67 234q-31 125 -43 192q-93 -93 -144 -191.5t-51 -232.5zM403 926q0 -58 5 -99q104 92 158.5 175.5 t54.5 195.5q0 61 -17 81.5t-49 20.5q-39 0 -74.5 -56.5t-56.5 -143.5t-21 -174z" />
<glyph unicode="'" horiz-adv-x="380" d="M242 881q53 413 53 419q3 39 25 62.5t57 23.5q27 0 45 -18t18 -47q0 -9 -10 -39l-131 -401h-57z" />
<glyph unicode="(" horiz-adv-x="385" d="M37 -4q0 738 444 1407l62 -33q-178 -312 -292 -699t-114 -749q0 -147 17 -307l-72 -23q-45 191 -45 404z" />
<glyph unicode=")" horiz-adv-x="385" d="M-160 -375q178 312 292 699t114 749q0 147 -17 307l72 23q45 -191 45 -404q0 -738 -444 -1407z" />
<glyph unicode="*" horiz-adv-x="606" d="M147 1024l238 86l-188 129l51 59l172 -149l41 237h76l-68 -243l231 106l23 -67l-236 -84l185 -129l-49 -60l-172 150l-41 -238h-76l65 242l-229 -107z" />
<glyph unicode="+" horiz-adv-x="770" d="M92 649l19 82h282l68 311h88l-70 -311h283l-19 -82h-282l-72 -323h-88l74 323h-283z" />
<glyph unicode="," horiz-adv-x="446" d="M-37 -184q57 29 100.5 77t57.5 95h-15q-27 0 -47 20.5t-20 50.5q0 38 28.5 66.5t65.5 28.5t60.5 -25.5t23.5 -71.5q0 -83 -62 -167.5t-145 -127.5z" />
<glyph unicode="-" horiz-adv-x="477" d="M49 449l21 94h352l-19 -94h-354z" />
<glyph unicode="." horiz-adv-x="444" d="M39 59q0 40 28 67.5t68 27.5q32 0 55 -23t23 -57q0 -39 -27.5 -66.5t-66.5 -27.5q-34 0 -57 22.5t-23 56.5z" />
<glyph unicode="/" horiz-adv-x="387" d="M-121 -41l621 1448h90l-623 -1448h-88z" />
<glyph unicode="0" horiz-adv-x="808" d="M88 326q0 125 21 268t63.5 283t99 254t134.5 184.5t163 70.5q106 0 168 -85.5t62 -264.5q0 -125 -21.5 -268.5t-64 -283.5t-99 -254t-134.5 -184.5t-163 -70.5q-105 0 -167 86.5t-62 264.5zM197 307q0 -116 30.5 -173.5t100.5 -57.5q62 0 120.5 73t101 186t75 246.5 t49 258.5t16.5 217q0 114 -30.5 171.5t-100.5 57.5q-77 0 -147.5 -110t-115.5 -268t-72 -321t-27 -280z" />
<glyph unicode="1" horiz-adv-x="546" d="M145 1063l357 303h98l-301 -1366h-111l269 1217l-258 -228z" />
<glyph unicode="2" horiz-adv-x="757" d="M4 0l25 117q372 476 468 612q137 194 164 303q11 43 11 86q0 76 -38.5 122t-103.5 46q-60 0 -112.5 -37.5t-104.5 -120.5l-75 66q136 192 299 192q115 0 185.5 -66t70.5 -185q0 -55 -11.5 -106.5t-46.5 -122.5t-74.5 -135t-122.5 -177t-161.5 -214.5t-218.5 -279.5h409 l-20 -100h-543z" />
<glyph unicode="3" horiz-adv-x="755" d="M0 248l102 47q15 -109 62.5 -164t122.5 -55q72 0 128.5 62t83.5 151.5t27 183.5q0 90 -45 135t-112 45q-42 0 -58 -2l25 105q14 -2 88 -2q56 0 101 32t73.5 84t43.5 115.5t15 130.5q0 170 -145 170q-62 0 -117 -43.5t-90 -114.5l-78 60q50 86 128.5 142t172.5 56 q113 0 180.5 -67.5t67.5 -190.5q0 -93 -31.5 -183t-95 -159.5t-145.5 -89.5q70 -27 102.5 -94.5t32.5 -152.5q0 -116 -43.5 -224t-126 -179t-182.5 -71q-109 0 -186 69.5t-101 203.5z" />
<glyph unicode="4" horiz-adv-x="692" d="M-2 377l25 108l585 881h137l-196 -891h110l-20 -98h-111l-84 -377h-108l82 377h-420zM123 475h315l164 731z" />
<glyph unicode="5" horiz-adv-x="759" d="M20 246l103 41q18 -211 170 -211q67 0 129 75.5t98.5 191t36.5 232.5q0 177 -129 177q-96 0 -195 -117l-75 43l153 688h498l-21 -100h-389l-114 -518q42 52 86 76t102 24q91 0 146 -72t55 -194q0 -148 -50 -287.5t-139.5 -229.5t-193.5 -90q-120 0 -183.5 71t-87.5 200z " />
<glyph unicode="6" horiz-adv-x="759" d="M82 305q0 64 12 161.5t35.5 221.5t65 245.5t95 223.5t132 165.5t168.5 63.5q87 0 151.5 -60.5t77.5 -162.5l-90 -55q-5 81 -42.5 129.5t-102.5 48.5q-209 0 -342 -600q-6 -23 -9 -43q48 88 110.5 143.5t135.5 55.5q90 0 147.5 -69t57.5 -198q0 -73 -15 -153.5t-46 -160.5 t-74.5 -143.5t-106 -103t-133.5 -39.5q-64 0 -109.5 26.5t-70.5 74t-36 104t-11 125.5zM186 295q0 -219 133 -219q60 0 110 54t79 133.5t45 161t16 146.5q0 77 -31 125.5t-96 48.5q-69 0 -128 -67.5t-105 -171.5q-23 -113 -23 -211z" />
<glyph unicode="7" horiz-adv-x="622" d="M47 0l576 1266h-408l21 100h532l-18 -76l-582 -1290h-121z" />
<glyph unicode="8" horiz-adv-x="757" d="M33 238q0 146 80 274.5t231 200.5q-54 45 -91.5 123t-37.5 159q0 94 40 182.5t116.5 148.5t169.5 60q49 0 91.5 -14.5t78.5 -44t56.5 -81t20.5 -120.5q0 -84 -25.5 -157.5t-69 -125t-91 -87t-100.5 -58.5q62 -54 99.5 -136.5t37.5 -166.5q0 -181 -98.5 -300.5 t-239.5 -119.5q-268 0 -268 263zM152 256q0 -90 41 -135t106 -45q86 0 155.5 99t69.5 235q0 95 -36 163.5t-74 90.5q-102 -39 -182 -151t-80 -257zM328 975q0 -70 31.5 -133.5t72.5 -93.5q31 13 62 32.5t64 52t57.5 72t40.5 96t16 119.5q0 78 -36.5 121t-105.5 43 q-83 0 -142.5 -91t-59.5 -218z" />
<glyph unicode="9" horiz-adv-x="759" d="M23 201l88 55q5 -81 43.5 -129.5t101.5 -48.5q209 0 342 600q2 8 8 43q-46 -87 -109.5 -143t-136.5 -56q-90 0 -146 68.5t-56 197.5q0 73 14.5 154t46 160.5t74 143.5t104.5 103.5t133 39.5q64 0 110 -26.5t71.5 -74t37 -104t11.5 -125.5q0 -64 -12 -161.5t-35.5 -222 t-65 -245.5t-95.5 -223.5t-132.5 -166t-169.5 -63.5q-87 0 -150.5 61t-76.5 163zM270 793q0 -77 31 -126t96 -49q125 0 236 240q22 130 22 211q0 219 -135 219q-60 0 -110 -54t-79 -133.5t-45 -161t-16 -146.5z" />
<glyph unicode=":" horiz-adv-x="444" d="M39 59q0 40 28 67.5t68 27.5q32 0 55 -23t23 -57q0 -39 -27.5 -66.5t-66.5 -27.5q-34 0 -57 22.5t-23 56.5zM227 911q0 38 28.5 65.5t66.5 27.5q34 0 56.5 -23t22.5 -57q0 -38 -28 -65.5t-66 -27.5q-34 0 -57 23t-23 57z" />
<glyph unicode=";" horiz-adv-x="444" d="M-37 -184q57 29 100.5 77t57.5 95h-15q-27 0 -47 20.5t-20 50.5q0 38 28.5 66.5t65.5 28.5t60.5 -25.5t23.5 -71.5q0 -83 -62 -167.5t-145 -127.5zM227 911q0 38 28.5 65.5t66.5 27.5q34 0 56.5 -23t22.5 -57q0 -38 -28 -65.5t-66 -27.5q-34 0 -57 23t-23 57z" />
<glyph unicode="&#x3c;" horiz-adv-x="770" d="M90 649l19 72l720 315l-24 -102l-602 -254l489 -252l-18 -92z" />
<glyph unicode="=" horiz-adv-x="770" d="M45 442l18 82h652l-19 -82h-651zM135 844l19 82h651l-19 -82h-651z" />
<glyph unicode="&#x3e;" horiz-adv-x="770" d="M20 336l25 100l604 252l-491 256l20 92l582 -315l-17 -72z" />
<glyph unicode="?" horiz-adv-x="628" d="M139 59q0 39 27.5 67t66.5 28q34 0 57 -23t23 -57q0 -40 -28 -67t-68 -27q-33 0 -55.5 23t-22.5 56zM233 489q0 59 20 111.5t51.5 93.5t70.5 80l77.5 77.5t70 78t51.5 89.5t20 105q0 68 -40 117t-110 49q-44 0 -76.5 -12t-68.5 -41l-37 82q91 70 201 70q113 0 179.5 -72 t66.5 -168q0 -64 -20.5 -123.5t-54 -105t-73.5 -88t-79.5 -81.5t-73 -76.5t-54 -81t-20.5 -87.5q0 -62 20 -103l-96 -43q-25 51 -25 129z" />
<glyph unicode="@" horiz-adv-x="1196" d="M113 442q0 217 90 417.5t243 325t324 124.5q181 0 288 -133.5t107 -370.5q0 -132 -25.5 -251.5t-66.5 -201.5t-92 -130t-102 -48q-64 0 -102.5 40.5t-41.5 104.5v13q-95 -158 -215 -158q-76 0 -130 59t-54 189q0 141 44.5 277.5t131.5 230.5t193 94q57 0 95 -43t52 -111 l22 117h97l-125 -590q-6 -30 -6 -57q0 -47 13.5 -66.5t45.5 -19.5q21 0 46.5 22t53.5 69t50.5 110t37.5 155t15 195q0 211 -92 324.5t-240 113.5q-115 0 -224.5 -70t-188 -182t-126 -257.5t-47.5 -291.5q0 -241 110 -381.5t288 -140.5q142 0 270 115l31 -49 q-145 -129 -312 -129q-205 0 -331.5 158.5t-126.5 426.5zM438 430q0 -176 107 -176q34 0 64.5 15t58 46t44 54.5t42.5 64.5l77 352q-29 156 -118 156q-63 0 -117 -51t-87 -129t-52 -165.5t-19 -166.5z" />
<glyph unicode="A" horiz-adv-x="692" d="M-92 0l565 1366h127l-37 -1366h-110l14 340h-309l-133 -340h-117zM197 440h278l35 785z" />
<glyph unicode="B" horiz-adv-x="780" d="M27 0l301 1366h198q121 0 188.5 -72.5t67.5 -193.5q0 -92 -27.5 -177t-85 -149t-134.5 -82q63 -20 93.5 -87.5t30.5 -145.5q0 -84 -23.5 -165t-66 -147t-111 -106.5t-151.5 -40.5h-280zM158 100h147q103 0 171.5 111t68.5 252q0 98 -43.5 143t-128.5 45h-92zM303 752h139 q55 0 100 34t71 86.5t39.5 108t13.5 106.5q0 89 -44 134t-122 45h-82z" />
<glyph unicode="C" horiz-adv-x="765" d="M88 344q0 65 9 150t28.5 185t48 199t70.5 191.5t91.5 163.5t116 113.5t140.5 42.5q108 0 166 -77.5t71 -207.5l-104 -21q-9 103 -43.5 154t-99.5 51q-71 0 -134.5 -75.5t-106.5 -189.5t-75 -246.5t-46.5 -247.5t-14.5 -193q0 -138 33.5 -199t105.5 -61q55 0 102 44.5 t97 133.5l90 -47q-65 -116 -137.5 -174t-161.5 -58q-116 0 -181 92t-65 277z" />
<glyph unicode="D" horiz-adv-x="833" d="M27 0l301 1366h221q50 0 95 -22t83.5 -66.5t61 -123t22.5 -181.5q0 -47 -7 -116t-25.5 -162.5t-46 -187t-72.5 -186t-100.5 -163t-134.5 -114.5t-171 -44h-227zM158 100h118h-4q65 0 123 39.5t100 104t77 147.5t57.5 167.5t38 167t22 144.5t6.5 101q0 150 -47.5 222.5 t-120.5 72.5h-110z" />
<glyph unicode="E" horiz-adv-x="698" d="M27 0l301 1366h469l-21 -100h-358l-115 -514h344l-22 -101h-344l-123 -551h360l-22 -100h-469z" />
<glyph unicode="F" horiz-adv-x="696" d="M27 0l301 1366h469l-21 -100h-358l-115 -514h344l-22 -101h-344l-144 -651h-110z" />
<glyph unicode="G" horiz-adv-x="804" d="M88 344q0 82 13.5 186.5t39 223t68.5 230.5t96.5 203t128 146.5t158.5 55.5q49 0 88 -16.5t64 -43t43 -63.5t27 -74.5t13 -79.5l-100 -22q-9 93 -41 145.5t-104 52.5q-69 0 -131.5 -73t-106 -184t-76 -242t-48 -249.5t-15.5 -203.5q0 -143 33 -201.5t106 -58.5 q50 0 89 32t83 95l82 375h-195l21 100h297l-113 -514q-122 -189 -274 -189q-116 0 -181 90t-65 279z" />
<glyph unicode="H" horiz-adv-x="851" d="M27 0l301 1366h110l-135 -614h356l134 614h110l-301 -1366h-110l143 653h-354l-144 -653h-110z" />
<glyph unicode="I" horiz-adv-x="387" d="M27 0l301 1366h110l-301 -1366h-110z" />
<glyph unicode="J" horiz-adv-x="634" d="M-74 86l66 78q23 -43 64.5 -65.5t84.5 -22.5q80 0 125.5 46t67.5 150l244 1094h110l-244 -1096q-34 -155 -104.5 -225t-192.5 -70q-152 0 -221 111z" />
<glyph unicode="K" horiz-adv-x="808" d="M27 0l301 1366h110l-159 -723l530 723h135l-493 -651l217 -715h-119l-178 627l-135 -183l-99 -444h-110z" />
<glyph unicode="L" horiz-adv-x="655" d="M27 0l301 1366h110l-280 -1266h360l-22 -100h-469z" />
<glyph unicode="M" horiz-adv-x="1091" d="M27 0l301 1366h155l19 -1051l485 1051h158l-301 -1366h-111l258 1159l-532 -1159h-47l-19 1159l-256 -1159h-110z" />
<glyph unicode="N" horiz-adv-x="851" d="M27 0l301 1366h110l117 -1075l238 1075h110l-301 -1366h-106l-117 1094l-242 -1094h-110z" />
<glyph unicode="O" horiz-adv-x="849" d="M88 344q0 74 13 175.5t38 220t67.5 232.5t96 208t129 151.5t160.5 57.5q86 0 143.5 -52.5t81 -133t23.5 -185.5q0 -75 -13 -176t-38.5 -219.5t-68.5 -232.5t-96.5 -207.5t-129 -150.5t-160.5 -57q-86 0 -143 51.5t-80 131.5t-23 186zM205 336q0 -127 32 -193.5t107 -66.5 q68 0 130.5 72t106.5 182.5t77 240.5t49 248.5t16 204.5q0 264 -141 264q-69 0 -131.5 -72.5t-106 -183.5t-76 -241.5t-48 -249.5t-15.5 -205z" />
<glyph unicode="P" horiz-adv-x="745" d="M27 0l301 1366h221q108 0 176 -81t68 -214q0 -91 -26 -178t-74 -160t-127 -117.5t-175 -44.5h-127l-127 -571h-110zM285 672h118q66 0 119.5 35.5t86 93.5t50 126.5t17.5 139.5q0 98 -42 148.5t-110 50.5h-106z" />
<glyph unicode="Q" horiz-adv-x="849" d="M88 344q0 74 13 175.5t38 220t67.5 232.5t96 208t129 151.5t160.5 57.5q86 0 143.5 -52.5t81 -133t23.5 -185.5q0 -93 -20 -224t-58.5 -275t-105 -275.5t-148.5 -200.5l16 -98l-90 -17l-10 66q-46 -19 -90 -19q-86 0 -143 51.5t-80 131.5t-23 186zM205 336 q0 -127 32 -193.5t107 -66.5q32 0 64 16l-52 326l93 16l40 -268q69 90 125 258t82.5 327t26.5 273q0 264 -141 264q-69 0 -131.5 -72.5t-106 -183.5t-76 -241.5t-48 -249.5t-15.5 -205z" />
<glyph unicode="R" horiz-adv-x="794" d="M27 0l301 1366h217q112 0 182 -81.5t70 -207.5q0 -180 -83.5 -317.5t-205.5 -171.5l76 -588h-115l-63 571h-142l-127 -571h-110zM285 672h121q66 0 119.5 35.5t85 94t48.5 127.5t17 142q0 97 -39 146t-107 49h-112z" />
<glyph unicode="S" horiz-adv-x="690" d="M-29 109l78 81q26 -51 77 -82.5t105 -31.5q97 0 169.5 84t72.5 223q0 65 -28.5 128.5t-69 118t-81 110t-69 126.5t-28.5 146q0 158 100 267.5t231 109.5q67 0 129 -27t99 -78l-70 -82q-58 86 -158 86q-95 0 -156 -77.5t-61 -186.5q0 -56 28.5 -116t68.5 -115.5 t80.5 -114.5t69 -133.5t28.5 -151.5q0 -178 -101.5 -298t-251.5 -120q-81 0 -153 37.5t-109 96.5z" />
<glyph unicode="T" horiz-adv-x="624" d="M145 0l281 1266h-219l20 100h551l-20 -100h-221l-281 -1266h-111z" />
<glyph unicode="U" horiz-adv-x="851" d="M92 240q0 51 10 96l226 1030h110l-227 -1034q-10 -40 -10 -80q0 -86 43 -131t112 -45q81 0 131 58.5t80 197.5l228 1034h110l-227 -1032q-41 -186 -121.5 -272.5t-208.5 -86.5q-115 0 -185.5 69.5t-70.5 195.5z" />
<glyph unicode="V" horiz-adv-x="692" d="M172 0l37 1366h110l-55 -1214l484 1214h116l-565 -1366h-127z" />
<glyph unicode="W" horiz-adv-x="1062" d="M143 0l90 1366h115l-98 -1163l422 1163h100l-94 -1163l416 1163h116l-512 -1366h-120l94 1128l-408 -1128h-121z" />
<glyph unicode="X" horiz-adv-x="692" d="M-98 0l426 700l-111 666h119l74 -555l315 555h131l-407 -678l120 -688h-114l-88 578l-336 -578h-129z" />
<glyph unicode="Y" horiz-adv-x="710" d="M190 0l129 586l-126 780h112l88 -661l385 661h121l-469 -780l-131 -586h-109z" />
<glyph unicode="Z" horiz-adv-x="663" d="M-41 0l21 100l643 1166h-383l20 100h510l-20 -96l-646 -1170h400l-21 -100h-524z" />
<glyph unicode="[" horiz-adv-x="352" d="M-127 -389l393 1778h248l-20 -84h-160l-357 -1610h160l-18 -84h-246z" />
<glyph unicode="\" horiz-adv-x="387" d="M182 -41v1448h86v-1448h-86z" />
<glyph unicode="]" horiz-adv-x="352" d="M-162 -389l19 84h159l357 1610h-160l18 84h248l-395 -1778h-246z" />
<glyph unicode="^" horiz-adv-x="669" d="M78 682l407 684h80l105 -684h-84l-76 592l-338 -592h-94z" />
<glyph unicode="_" horiz-adv-x="571" d="M-152 -166l19 84h582l-19 -84h-582z" />
<glyph unicode="`" horiz-adv-x="272" d="M207 1434h110l97 -295h-72z" />
<glyph unicode="a" d="M53 258q0 75 14.5 170.5t46 199t74.5 189.5t107 141.5t137 55.5q57 0 104.5 -43.5t69.5 -130.5l31 149h100l-219 -989h-100l31 131q-92 -156 -207 -156q-90 0 -139.5 74.5t-49.5 208.5zM160 262q0 -102 30 -149t91 -47q50 0 104 54.5t88 129.5l109 485q-6 78 -46.5 133.5 t-93.5 55.5q-65 0 -121 -76t-89.5 -185t-52.5 -216.5t-19 -184.5z" />
<glyph unicode="b" d="M14 0l301 1366h101l-113 -508q91 156 207 156q90 0 138 -74t48 -209q0 -75 -14.5 -170.5t-46 -199t-74.5 -189.5t-107 -141.5t-137 -55.5q-57 0 -104 44t-68 131l-30 -150h-101zM168 254q6 -77 47 -132.5t94 -55.5q52 0 99.5 50.5t80 127.5t56.5 168t35.5 173t11.5 142 q0 103 -30 150t-91 47q-51 0 -105.5 -55t-89.5 -130z" />
<glyph unicode="c" horiz-adv-x="626" d="M59 301q0 81 16 174.5t50 189.5t81.5 173.5t117.5 126.5t151 49q119 0 184 -101l-63 -71q-21 41 -54 61.5t-69 20.5q-60 0 -112.5 -45.5t-87 -116t-59.5 -156.5t-36.5 -166t-11.5 -145q0 -229 149 -229q75 0 134 69l36 -78q-46 -45 -87 -63.5t-95 -18.5q-114 0 -179 81 t-65 245z" />
<glyph unicode="d" d="M53 258q0 75 14.5 170.5t46 199t74.5 189.5t107 141.5t137 55.5q57 0 104.5 -43.5t69.5 -130.5l115 526h100l-303 -1366h-100l31 131q-92 -156 -207 -156q-90 0 -139.5 74.5t-49.5 208.5zM160 262q0 -102 30 -149t91 -47q50 0 104 54.5t88 129.5l109 485 q-6 78 -46.5 133.5t-93.5 55.5q-65 0 -121 -76t-89.5 -185t-52.5 -216.5t-19 -184.5z" />
<glyph unicode="e" horiz-adv-x="735" d="M57 301q0 60 12 143t42.5 184.5t74.5 186t115.5 142t157.5 57.5q106 0 167.5 -70.5t61.5 -222.5q0 -117 -37 -258h-475q-18 -89 -18 -164q0 -110 43.5 -174t128.5 -64q45 0 93.5 33.5t84.5 87.5l55 -63q-113 -144 -241 -144q-125 0 -195 82t-70 244zM190 543h365h12 q23 97 23 174q0 91 -34.5 151t-102.5 60q-52 0 -98 -37.5t-77.5 -98.5t-53 -123t-34.5 -126z" />
<glyph unicode="f" horiz-adv-x="436" d="M41 0l199 899h-99l19 90h100l41 193q21 95 74.5 149.5t138.5 54.5q39 0 76.5 -15.5t54.5 -41.5l-57 -76q-25 43 -72 43q-90 0 -115 -114l-41 -193h140l-21 -90h-137l-201 -899h-100z" />
<glyph unicode="g" d="M-63 -291l65 80q28 -43 77 -71.5t107 -28.5q80 0 133 60t84 188l50 202q-90 -155 -209 -155q-86 0 -137.5 69t-51.5 209q0 75 13.5 169t44 197.5t73.5 189t108 141t140 55.5q56 0 107 -47.5t67 -126.5l31 149h98l-233 -1052q-38 -179 -118 -258.5t-202 -79.5 q-71 0 -138.5 28.5t-108.5 81.5zM160 270q0 -107 31 -151.5t90 -44.5q52 0 105.5 54t88.5 130l107 477q-5 72 -46 130.5t-96 58.5q-51 0 -97 -48t-78.5 -123t-57 -164t-36 -172t-11.5 -147z" />
<glyph unicode="h" horiz-adv-x="737" d="M14 0l301 1366h101l-113 -512q112 160 236 160q73 0 112 -39.5t39 -104.5q0 -17 -10 -67l-176 -803h-103l174 782q9 27 9 56q0 86 -84 86q-57 0 -118.5 -54t-105.5 -129l-161 -741h-101z" />
<glyph unicode="i" horiz-adv-x="348" d="M14 0l219 989h101l-219 -989h-101zM252 1217q0 38 28.5 62t61.5 24q30 0 51 -20t21 -48q0 -39 -28 -63.5t-60 -24.5q-31 0 -52.5 20.5t-21.5 49.5z" />
<glyph unicode="j" horiz-adv-x="348" d="M-242 -328l68 60q10 -43 53 -43q32 0 54 30.5t40 110.5l260 1159h101l-258 -1159q-30 -128 -75.5 -179.5t-119.5 -51.5q-95 0 -123 73zM252 1217q0 38 28.5 62t61.5 24q30 0 51 -20t21 -48q0 -39 -28 -63.5t-60 -24.5q-31 0 -52.5 20.5t-21.5 49.5z" />
<glyph unicode="k" horiz-adv-x="702" d="M14 0l301 1366h101l-211 -952l459 575h110l-354 -444l131 -545h-105l-102 477l-172 -215l-57 -262h-101z" />
<glyph unicode="l" horiz-adv-x="348" d="M14 0l301 1366h101l-301 -1366h-101z" />
<glyph unicode="m" horiz-adv-x="1126" d="M14 0l219 989h101l-31 -135q49 72 110.5 116t125.5 44q70 0 110.5 -38t40.5 -97q0 -17 -2 -29q116 164 240 164q72 0 111.5 -38t39.5 -104q0 -19 -10 -69l-178 -803h-100l174 782q0 4 3 25.5t3 30.5q0 45 -20 65.5t-64 20.5q-56 0 -116 -54t-105 -129l-162 -741h-103 l174 782q9 45 9 60q0 82 -84 82q-57 0 -118 -54t-106 -129l-161 -741h-101z" />
<glyph unicode="n" horiz-adv-x="737" d="M14 0l219 989h101l-31 -135q112 160 236 160q71 0 111 -37.5t40 -106.5q0 -32 -10 -67l-176 -803h-103l174 782q9 36 9 56q0 86 -84 86q-57 0 -118.5 -54t-105.5 -129l-161 -741h-101z" />
<glyph unicode="o" horiz-adv-x="751" d="M57 281q0 86 16 183.5t49.5 195.5t80.5 176.5t114.5 128t145.5 49.5q107 0 168 -75t61 -230q0 -86 -16 -183.5t-49.5 -195.5t-80 -177t-114 -128.5t-145.5 -49.5q-107 0 -168.5 75.5t-61.5 230.5zM162 279q0 -116 34 -164.5t97 -48.5q66 0 124 71t94 174.5t56.5 210 t20.5 187.5q0 117 -34 166t-97 49q-66 0 -124 -71.5t-94 -175t-56.5 -210.5t-20.5 -188z" />
<glyph unicode="p" d="M-70 -377l303 1366h101l-31 -131q91 156 207 156q90 0 138 -74t48 -209q0 -75 -14.5 -170.5t-46 -199t-74.5 -189.5t-107 -141.5t-137 -55.5q-57 0 -104 44t-68 131l-114 -527h-101zM168 254q6 -77 47 -132.5t94 -55.5q52 0 99.5 50.5t80 127.5t56.5 168t35.5 173 t11.5 142q0 103 -30 150t-91 47q-51 0 -105.5 -55t-89.5 -130z" />
<glyph unicode="q" d="M53 258q0 75 14.5 170.5t46 199t74.5 189.5t107 141.5t137 55.5q57 0 104.5 -43.5t69.5 -130.5l31 149h100l-303 -1366h-100l115 508q-92 -156 -207 -156q-90 0 -139.5 74.5t-49.5 208.5zM160 262q0 -102 30 -149t91 -47q50 0 104 54.5t88 129.5l109 485 q-6 78 -46.5 133.5t-93.5 55.5q-65 0 -121 -76t-89.5 -185t-52.5 -216.5t-19 -184.5z" />
<glyph unicode="r" horiz-adv-x="489" d="M14 0l219 989h101l-33 -143q50 82 112.5 123t155.5 41l-24 -109q-10 4 -41 4q-68 0 -127.5 -49.5t-102.5 -132.5l-159 -723h-101z" />
<glyph unicode="s" horiz-adv-x="602" d="M-29 109l70 63q52 -113 172 -113q71 0 124.5 60t53.5 139q0 53 -26.5 101t-64.5 86.5t-76 79t-64.5 95t-26.5 117.5q0 114 74 195.5t194 81.5q64 0 120.5 -31t88.5 -86l-65 -63q-19 45 -61 70.5t-89 25.5q-72 0 -118 -49.5t-46 -124.5q0 -48 27 -94t65.5 -85t76.5 -80.5 t65 -98t27 -119.5q0 -126 -81 -215t-204 -89q-80 0 -142.5 34t-93.5 100z" />
<glyph unicode="t" horiz-adv-x="454" d="M70 106q0 32 8 68l162 725h-103l21 90h102l59 271h101l-60 -271h140l-21 -90h-137l-160 -715q-8 -27 -8 -59q0 -59 62 -59q40 0 67 34l29 -75q-54 -50 -119 -50q-143 0 -143 131z" />
<glyph unicode="u" horiz-adv-x="737" d="M45 119q0 32 10 67l178 803h101l-174 -782q-6 -27 -6 -55q0 -45 20 -65.5t62 -20.5q58 0 116 49t103 123l166 751h102l-219 -989h-103l31 135q-112 -160 -235 -160q-71 0 -111.5 38t-40.5 106z" />
<glyph unicode="v" horiz-adv-x="620" d="M135 989h105l-19 -866l369 866h112l-448 -989h-113z" />
<glyph unicode="w" horiz-adv-x="1050" d="M133 0l10 989h103l-29 -842l358 842h107l-14 -842l346 842h110l-428 -989h-104l10 848l-364 -848h-105z" />
<glyph unicode="x" horiz-adv-x="626" d="M-78 0l330 502l-98 487h104l70 -403l250 403h112l-317 -487l110 -502h-106l-78 418l-264 -418h-113z" />
<glyph unicode="y" horiz-adv-x="620" d="M-131 -383l37 86q11 -14 47 -14q33 0 54 21.5t48 78.5l84 178l-4 1022h105l-17 -858l367 858h112l-559 -1222q-44 -94 -88 -131t-102 -37q-48 0 -84 18z" />
<glyph unicode="z" horiz-adv-x="591" d="M-33 0l17 82l495 817h-313l20 90h428l-18 -82l-494 -817h320l-19 -90h-436z" />
<glyph unicode="{" horiz-adv-x="399" d="M-39 -236q0 38 8 58l109 493q6 30 6 41q0 47 -20.5 76t-61.5 29l18 78q56 0 91 39.5t49 105.5l110 502q24 103 83.5 153t142.5 50h65l-20 -84h-64q-42 0 -75 -30t-46 -89l-112 -518q-16 -71 -46 -114t-87 -65q59 -29 59 -110q0 -37 -8 -70l-109 -493q-4 -20 -4 -33 q0 -41 21 -64.5t51 -23.5h63l-18 -84h-55q-61 0 -105.5 42t-44.5 111z" />
<glyph unicode="|" horiz-adv-x="360" d="M178 -41v1448h84v-1448h-84z" />
<glyph unicode="}" horiz-adv-x="399" d="M-164 -389l19 84h63q43 0 75.5 30t45.5 89l115 518q14 70 44 113t87 65q-27 14 -43.5 44t-16.5 67q0 36 8 69l109 494q4 20 4 33q0 41 -20.5 64.5t-49.5 23.5h-63l18 84h54q62 0 106.5 -43t44.5 -115q0 -13 -8 -53l-109 -494q-6 -30 -6 -43q0 -45 20.5 -73.5t59.5 -28.5 l-18 -78q-105 0 -137 -146l-113 -501q-22 -104 -81 -153.5t-144 -49.5h-64z" />
<glyph unicode="~" horiz-adv-x="788" d="M141 887q16 70 33 127.5t44.5 125.5t58 114t73.5 77t92 31q51 0 80 -30t35.5 -75t9 -98t2.5 -98t14 -75t44 -30q61 0 110.5 98.5t102.5 311.5l82 -8q-107 -479 -304 -479q-51 0 -80 30t-35.5 74.5t-9 97t-2 97t-13.5 74.5t-44 30q-61 0 -110.5 -98.5t-100.5 -309.5z" />
<glyph unicode="&#xa1;" horiz-adv-x="444" d="M-37 -377l250 1014h80l-199 -1014h-131zM229 915q0 39 28 67t67 28q34 0 56.5 -23t22.5 -57q0 -40 -28 -67t-68 -27q-33 0 -55.5 23t-22.5 56z" />
<glyph unicode="&#xa2;" horiz-adv-x="626" d="M59 301q0 80 15.5 172t49 186.5t79.5 171.5t114 127.5t146 53.5l33 145h86l-35 -156q67 -20 112 -88l-63 -71q-25 49 -70 69l-188 -843q62 9 111 67l36 -78q-43 -41 -82 -60t-86 -22l-38 -180h-86l40 189q-174 43 -174 317zM166 295q0 -177 88 -217l188 842 q-67 -13 -122.5 -84.5t-87.5 -169t-49 -195t-17 -176.5z" />
<glyph unicode="&#xa3;" horiz-adv-x="739" d="M-6 72q110 65 193 190.5t83 249.5q0 6 -1 19.5t-1 19.5h-196l18 82h162q-4 12 -17.5 55.5t-19.5 65t-12 61.5t-6 78q0 130 49.5 244t132.5 181.5t178 67.5q103 0 171 -60.5t75 -166.5l-98 -35q-17 166 -148 166q-91 0 -166.5 -116.5t-75.5 -286.5q0 -45 9 -87.5t24 -92 t21 -74.5h155l-16 -82h-129v-4q0 -126 -68 -244.5t-153 -179.5q43 22 71 22q47 0 113 -34.5t100 -34.5q78 0 140 74l28 -87q-34 -38 -85 -63t-103 -25q-43 0 -79 13t-56.5 28t-48.5 28t-58 13q-63 0 -157 -71z" />
<glyph unicode="&#xa4;" horiz-adv-x="1069" d="M23 283l157 129q-35 64 -49 109.5t-14 111.5q0 193 164 354l-76 100l65 54l80 -99q122 88 273 88q167 0 292 -116l160 131l51 -62l-159 -131q63 -104 63 -221q0 -187 -164 -354l78 -98l-70 -56l-75 101q-126 -91 -271 -91q-170 0 -297 121l-161 -135zM217 645 q0 -139 89 -226t229 -87q157 0 276 115.5t119 271.5q0 139 -89 226t-229 87q-157 0 -276 -115.5t-119 -271.5z" />
<glyph unicode="&#xa5;" horiz-adv-x="710" d="M-12 258l18 82h266l54 246h-265l17 82h233l-112 698h112l88 -661l385 661h121l-420 -698h217l-16 -82h-250l-55 -246h250l-19 -82h-250l-57 -258h-108l57 258h-266z" />
<glyph unicode="&#xa6;" horiz-adv-x="360" d="M178 -41v647h84v-647h-84zM178 760v647h84v-647h-84z" />
<glyph unicode="&#xa7;" horiz-adv-x="602" d="M-70 -39l70 64q54 -109 178 -109q72 0 125 64.5t53 154.5q0 51 -26 96t-63 80.5t-74 74t-63 93t-26 119.5q0 103 62.5 178t169.5 90q-119 106 -119 238q0 121 76.5 201.5t179.5 80.5q158 0 227 -114l-67 -58q-49 93 -158 93q-67 0 -113.5 -56.5t-46.5 -132.5 q0 -51 26 -97t63.5 -83.5t75 -76.5t63.5 -92.5t26 -115.5q0 -103 -51.5 -178t-152.5 -110q40 -40 66 -97.5t26 -115.5q0 -130 -78 -224t-199 -94q-177 0 -250 127zM201 614q0 -50 29 -104t79 -96q164 57 164 221q0 93 -78 180q-106 -11 -150 -68t-44 -133z" />
<glyph unicode="&#xa8;" horiz-adv-x="528" d="M217 1223q0 32 24 56t58 24q28 0 47 -19t19 -47q0 -32 -25 -56t-57 -24q-28 0 -47 19t-19 47zM485 1223q0 32 25 56t57 24q28 0 47 -19t19 -47q0 -32 -24 -56t-58 -24q-28 0 -47 19t-19 47z" />
<glyph unicode="&#xa9;" horiz-adv-x="1593" d="M131 684q0 191 94.5 354t257 258t353.5 95q143 0 274 -56t226 -151t151.5 -226t56.5 -274t-56.5 -274t-151.5 -226t-226 -151t-274 -56q-191 0 -353.5 95t-257 258t-94.5 354zM188 684q0 -175 87 -324.5t236.5 -237t324.5 -87.5t325 87.5t238 237t88 324.5t-88 324.5 t-238 237t-325 87.5t-324.5 -87.5t-236.5 -237t-87 -324.5zM403 629q0 103 41.5 196t109 158t155 103t178.5 38q217 0 317 -163l-55 -39q-36 70 -104.5 106.5t-157.5 36.5q-101 0 -196.5 -55.5t-158.5 -157.5t-63 -223q0 -135 91.5 -229.5t236.5 -94.5q64 0 128.5 27.5 t108.5 70.5l33 -53q-126 -104 -270 -104q-181 0 -287.5 109.5t-106.5 273.5z" />
<glyph unicode="&#xaa;" horiz-adv-x="577" d="M162 864q0 70 17.5 148.5t48.5 150t83 118t113 46.5q40 0 78 -29.5t51 -76.5l20 90h84l-141 -643h-84l21 92q-33 -56 -73.5 -82.5t-76.5 -26.5q-141 0 -141 213zM246 866q0 -145 90 -145q34 0 71.5 36t63.5 85l66 303q-3 46 -32 79t-67 33q-56 0 -102 -69t-68 -157.5 t-22 -164.5z" />
<glyph unicode="&#xab;" horiz-adv-x="612" d="M59 498l267 362h98l-272 -371l100 -360h-90zM270 498l267 362h98l-273 -371l101 -360h-90z" />
<glyph unicode="&#xac;" horiz-adv-x="770" d="M135 844l19 82h651l-109 -484h-84l88 402h-565z" />
<glyph unicode="&#xad;" horiz-adv-x="477" d="M49 449l21 94h352l-19 -94h-354z" />
<glyph unicode="&#xae;" horiz-adv-x="1011" d="M172 952q0 181 127 307.5t307 126.5q119 0 219 -57.5t157.5 -157.5t57.5 -219q0 -180 -127.5 -307t-308.5 -127q-180 0 -306 127t-126 307zM227 952q0 -156 110.5 -267.5t266.5 -111.5q157 0 269 112t112 267q0 158 -112 268.5t-269 110.5t-267 -110.5t-110 -268.5z M387 702l109 498h184q60 0 101.5 -35t41.5 -96q0 -70 -51 -119t-113 -49l91 -199h-74l-86 197h-98l-43 -197h-62zM504 958h141q46 0 79.5 30t33.5 73q0 39 -25 60.5t-61 21.5h-127z" />
<glyph unicode="&#xaf;" horiz-adv-x="499" d="M158 1210l16 74h498l-17 -74h-497z" />
<glyph unicode="&#xb0;" horiz-adv-x="573" d="M195 1149q0 98 68.5 167.5t166.5 69.5q97 0 167.5 -69.5t70.5 -167.5t-70.5 -167t-167.5 -69q-98 0 -166.5 69t-68.5 167zM272 1149q0 -65 45.5 -111.5t110.5 -46.5t113.5 47t48.5 111q0 66 -47.5 113t-112.5 47q-66 0 -112 -47t-46 -113z" />
<glyph unicode="&#xb1;" horiz-adv-x="770" d="M-29 106l19 82h651l-18 -82h-652zM92 649l19 82h282l68 311h88l-70 -311h283l-19 -82h-282l-72 -323h-88l74 323h-283z" />
<glyph unicode="&#xb2;" horiz-adv-x="516" d="M147 862l15 70q98 105 146.5 158t108 120.5t84.5 101t50.5 74.5t33 68.5t7.5 56.5q0 53 -29.5 81t-73.5 28q-85 0 -153 -102l-53 53q93 123 211 123q79 0 133.5 -47t54.5 -131q0 -26 -4.5 -51t-20.5 -56.5t-28.5 -54.5t-46.5 -65.5t-55.5 -68.5t-74 -84t-83.5 -91 t-103 -109h291l-14 -74h-396z" />
<glyph unicode="&#xb3;" horiz-adv-x="516" d="M160 993l71 43q12 -51 46.5 -82.5t82.5 -31.5q50 0 86 36t51 83t15 96q0 55 -29 82.5t-71 27.5t-52 -2l17 76q10 -2 59 -2q63 0 108.5 52.5t45.5 137.5q0 50 -27 80.5t-76 30.5q-80 0 -151 -98l-53 49q88 123 211 123q88 0 136 -46t48 -132q0 -77 -47.5 -149.5 t-126.5 -88.5q44 -13 69 -57.5t25 -106.5q0 -43 -15 -88t-43 -85.5t-75 -66.5t-103 -26q-76 0 -129.5 39t-72.5 106z" />
<glyph unicode="&#xb4;" horiz-adv-x="272" d="M137 1139l225 295h117l-266 -295h-76z" />
<glyph unicode="&#xb6;" horiz-adv-x="919" d="M162 981q0 97 50.5 185t143 144t203.5 56h381l-348 -1571h-74l332 1497h-193l-333 -1497h-74l192 867q-116 0 -198 91t-82 228z" />
<glyph unicode="&#xb7;" horiz-adv-x="444" d="M135 494q0 40 28 67t68 27q32 0 55 -23t23 -57q0 -39 -27.5 -66.5t-66.5 -27.5q-34 0 -57 23t-23 57z" />
<glyph unicode="&#xb8;" horiz-adv-x="323" d="M-182 -313l45 59q42 -65 117 -65q47 0 78.5 32.5t31.5 77.5q0 26 -14.5 41.5t-40.5 15.5q-32 0 -60 -28l-47 30l103 173h73l-86 -140q19 19 50 19q42 0 69 -31.5t27 -77.5q0 -75 -56 -127.5t-133 -52.5q-98 0 -157 74z" />
<glyph unicode="&#xb9;" horiz-adv-x="415" d="M254 1487l227 194h78l-180 -819h-88l153 697l-145 -127z" />
<glyph unicode="&#xba;" horiz-adv-x="573" d="M164 872q0 48 10 106t32.5 120t54 112.5t79.5 83.5t104 33q91 0 136 -57.5t45 -163.5q0 -48 -10 -106t-33 -120t-54.5 -112.5t-79.5 -83.5t-104 -33q-90 0 -135 58t-45 163zM250 870q0 -147 96 -147q47 0 86.5 44.5t62 109t34.5 126t12 105.5q0 145 -101 145 q-47 0 -85.5 -44t-60 -108.5t-33 -125.5t-11.5 -105z" />
<glyph unicode="&#xbb;" horiz-adv-x="612" d="M-23 129l273 371l-100 360h90l102 -368l-266 -363h-99zM188 129l273 371l-101 360h91l102 -368l-266 -363h-99z" />
<glyph unicode="&#xbc;" horiz-adv-x="1116" d="M127 0l856 1366h76l-858 -1366h-74zM184 1171l228 195h77l-180 -819h-88l154 696l-146 -127zM575 221l17 74l377 524h108l-116 -526h75l-16 -72h-76l-47 -221h-88l49 221h-283zM670 293h202l95 412z" />
<glyph unicode="&#xbd;" horiz-adv-x="1179" d="M127 0l856 1366h76l-858 -1366h-74zM184 1171l228 195h77l-180 -819h-88l154 696l-146 -127zM621 0l14 70q98 105 146.5 158t108 120.5t84.5 101t50.5 74.5t33 68.5t7.5 56.5q0 53 -29 81t-73 28q-85 0 -154 -103l-53 54q92 122 211 122q79 0 133.5 -47t54.5 -131 q0 -51 -22 -103t-76 -121.5t-123 -145.5t-184 -198l-11 -11h291l-14 -74h-395z" />
<glyph unicode="&#xbe;" horiz-adv-x="1189" d="M90 678l72 43q12 -51 46.5 -83t82.5 -32q50 0 85.5 36t50.5 83t15 96q0 55 -29 83t-71 28q-41 0 -51 -2l16 76q10 -2 60 -2q63 0 108 52.5t45 137.5q0 51 -26.5 81t-75.5 30q-80 0 -152 -99l-53 49q88 123 211 123q88 0 136 -46t48 -132q0 -77 -47 -149t-127 -88 q44 -13 69 -57.5t25 -106.5q0 -43 -15 -88t-43 -86t-74.5 -67t-102.5 -26q-76 0 -130 39.5t-73 106.5zM201 0l856 1366h76l-859 -1366h-73zM649 221l17 74l376 524h109l-117 -526h76l-16 -72h-76l-47 -221h-88l49 221h-283zM743 293h203l94 412z" />
<glyph unicode="&#xbf;" horiz-adv-x="538" d="M-84 -160q0 64 20.5 123t54 104.5t73.5 88t79.5 81.5t73 76.5t54 81t20.5 88.5q0 57 -19 103l97 43q24 -59 24 -129q0 -59 -20 -111.5t-52 -93.5t-70.5 -80t-77 -77.5t-70.5 -78t-52 -89.5t-20 -105q0 -68 39.5 -117t109.5 -49q46 0 78 12t70 41l37 -82q-92 -69 -203 -69 q-113 0 -179.5 71.5t-66.5 167.5zM313 915q0 39 28 66t67 27q34 0 56.5 -23t22.5 -55q0 -40 -28 -67t-68 -27q-33 0 -55.5 23t-22.5 56z" />
<glyph unicode="&#xc0;" horiz-adv-x="692" d="M-92 0l565 1366h127l-37 -1366h-110l14 340h-309l-133 -340h-117zM197 440h278l35 785zM453 1786h110l96 -295h-71z" />
<glyph unicode="&#xc1;" horiz-adv-x="692" d="M-92 0l565 1366h127l-37 -1366h-110l14 340h-309l-133 -340h-117zM197 440h278l35 785zM469 1491l225 295h117l-266 -295h-76z" />
<glyph unicode="&#xc2;" horiz-adv-x="692" d="M-92 0l565 1366h127l-37 -1366h-110l14 340h-309l-133 -340h-117zM197 440h278l35 785zM375 1491l203 295h104l78 -295h-62l-82 225l-172 -225h-69z" />
<glyph unicode="&#xc3;" horiz-adv-x="692" d="M-92 0l565 1366h127l-37 -1366h-110l14 340h-309l-133 -340h-117zM197 440h278l35 785zM332 1499q60 275 188 275q35 0 53.5 -22t23 -53t7 -62.5t12.5 -53.5t33 -22q69 0 113 200h65q-62 -274 -190 -274q-35 0 -53.5 22t-23 53.5t-7 62.5t-13.5 53t-34 22 q-68 0 -109 -201h-65z" />
<glyph unicode="&#xc4;" horiz-adv-x="692" d="M-92 0l565 1366h127l-37 -1366h-110l14 340h-309l-133 -340h-117zM197 440h278l35 785zM375 1565q0 32 24 56t58 24q28 0 46.5 -19t18.5 -47q0 -32 -25 -56t-57 -24q-28 0 -46.5 19t-18.5 47zM643 1565q0 32 25 56t57 24q28 0 47 -19t19 -47q0 -32 -24 -56t-58 -24 q-28 0 -47 19t-19 47z" />
<glyph unicode="&#xc5;" horiz-adv-x="692" d="M-92 0l565 1366h127l-37 -1366h-110l14 340h-309l-133 -340h-117zM197 440h278l35 785zM422 1567q0 72 55 128t127 56q64 0 105 -43.5t41 -108.5q0 -73 -54.5 -127.5t-128.5 -54.5q-64 0 -104.5 42.5t-40.5 107.5zM483 1573q0 -40 25 -67t63 -27q48 0 82.5 33.5 t34.5 82.5q0 39 -24.5 67t-63.5 28q-47 0 -82 -35.5t-35 -81.5z" />
<glyph unicode="&#xc6;" horiz-adv-x="1089" d="M-74 0l740 1366h516l-21 -100h-360l-113 -514h344l-22 -101h-346l-121 -551h358l-20 -100h-469l73 340h-264l-176 -340h-119zM272 440h236l172 772z" />
<glyph unicode="&#xc7;" horiz-adv-x="765" d="M82 -313l45 59q42 -65 117 -65q47 0 78.5 32.5t31.5 77.5q0 26 -14.5 41.5t-40.5 15.5q-31 0 -59 -28l-47 30l77 134q-182 47 -182 360q0 65 9 150t28.5 185t48 199t70.5 191.5t91.5 163.5t116 113.5t140.5 42.5q108 0 166 -77.5t71 -207.5l-104 -21q-9 103 -43.5 154 t-99.5 51q-71 0 -134.5 -75.5t-106.5 -189.5t-75 -246.5t-46.5 -247.5t-14.5 -193q0 -138 33.5 -199t105.5 -61q55 0 102 44.5t97 133.5l90 -47q-65 -113 -136 -171t-157 -61l-57 -92q19 19 49 19q42 0 69 -31.5t27 -77.5q0 -75 -55.5 -127.5t-132.5 -52.5q-99 0 -158 74z " />
<glyph unicode="&#xc8;" horiz-adv-x="698" d="M27 0l301 1366h469l-21 -100h-358l-115 -514h344l-22 -101h-344l-123 -551h360l-22 -100h-469zM487 1786h111l96 -295h-71z" />
<glyph unicode="&#xc9;" horiz-adv-x="698" d="M27 0l301 1366h469l-21 -100h-358l-115 -514h344l-22 -101h-344l-123 -551h360l-22 -100h-469zM500 1491l225 295h117l-267 -295h-75z" />
<glyph unicode="&#xca;" horiz-adv-x="698" d="M27 0l301 1366h469l-21 -100h-358l-115 -514h344l-22 -101h-344l-123 -551h360l-22 -100h-469zM406 1491l202 295h105l78 -295h-62l-82 225l-172 -225h-69z" />
<glyph unicode="&#xcb;" horiz-adv-x="698" d="M27 0l301 1366h469l-21 -100h-358l-115 -514h344l-22 -101h-344l-123 -551h360l-22 -100h-469zM403 1565q0 32 24 56t58 24q28 0 47 -19t19 -47q0 -32 -25 -56t-57 -24q-28 0 -47 19t-19 47zM672 1565q0 32 25 56t57 24q28 0 46.5 -19t18.5 -47q0 -32 -24 -56t-58 -24 q-28 0 -46.5 19t-18.5 47z" />
<glyph unicode="&#xcc;" horiz-adv-x="387" d="M27 0l301 1366h110l-301 -1366h-110zM301 1786h111l96 -295h-72z" />
<glyph unicode="&#xcd;" horiz-adv-x="387" d="M27 0l301 1366h110l-301 -1366h-110zM319 1491l226 295h117l-267 -295h-76z" />
<glyph unicode="&#xce;" horiz-adv-x="387" d="M27 0l301 1366h110l-301 -1366h-110zM223 1491l203 295h104l78 -295h-61l-82 225l-172 -225h-70z" />
<glyph unicode="&#xcf;" horiz-adv-x="387" d="M27 0l301 1366h110l-301 -1366h-110zM227 1565q0 32 24 56t58 24q28 0 47 -19t19 -47q0 -32 -25 -56t-57 -24q-28 0 -47 19t-19 47zM496 1565q0 32 25 56t57 24q28 0 46.5 -19t18.5 -47q0 -32 -24 -56t-58 -24q-28 0 -46.5 19t-18.5 47z" />
<glyph unicode="&#xd0;" horiz-adv-x="868" d="M63 0l140 637h-125l20 94h125l142 635h221q50 0 95 -22t83.5 -66.5t61 -123t22.5 -181.5q0 -47 -7 -116t-25.5 -162.5t-46 -187t-72.5 -186t-100.5 -163t-134.5 -114.5t-171 -44h-228zM195 100h114q65 0 123 39.5t100 104t77 147.5t57.5 167.5t38 167t22 144.5t6.5 101 q0 150 -47.5 222.5t-120.5 72.5h-110l-121 -535h186l-20 -94h-187z" />
<glyph unicode="&#xd1;" horiz-adv-x="851" d="M27 0l301 1366h110l117 -1075l238 1075h110l-301 -1366h-106l-117 1094l-242 -1094h-110zM422 1499q60 275 188 275q35 0 53.5 -22t23 -53t7 -62.5t12.5 -53.5t33 -22q69 0 113 200h66q-62 -274 -191 -274q-35 0 -53.5 22t-23 53.5t-7 62.5t-13.5 53t-34 22 q-68 0 -109 -201h-65z" />
<glyph unicode="&#xd2;" horiz-adv-x="849" d="M88 344q0 74 13 175.5t38 220t67.5 232.5t96 208t129 151.5t160.5 57.5q86 0 143.5 -52.5t81 -133t23.5 -185.5q0 -75 -13 -176t-38.5 -219.5t-68.5 -232.5t-96.5 -207.5t-129 -150.5t-160.5 -57q-86 0 -143 51.5t-80 131.5t-23 186zM205 336q0 -127 32 -193.5t107 -66.5 q68 0 130.5 72t106.5 182.5t77 240.5t49 248.5t16 204.5q0 264 -141 264q-69 0 -131.5 -72.5t-106 -183.5t-76 -241.5t-48 -249.5t-15.5 -205zM530 1786h111l96 -295h-71z" />
<glyph unicode="&#xd3;" horiz-adv-x="849" d="M88 344q0 74 13 175.5t38 220t67.5 232.5t96 208t129 151.5t160.5 57.5q86 0 143.5 -52.5t81 -133t23.5 -185.5q0 -75 -13 -176t-38.5 -219.5t-68.5 -232.5t-96.5 -207.5t-129 -150.5t-160.5 -57q-86 0 -143 51.5t-80 131.5t-23 186zM205 336q0 -127 32 -193.5t107 -66.5 q68 0 130.5 72t106.5 182.5t77 240.5t49 248.5t16 204.5q0 264 -141 264q-69 0 -131.5 -72.5t-106 -183.5t-76 -241.5t-48 -249.5t-15.5 -205zM549 1491l225 295h117l-266 -295h-76z" />
<glyph unicode="&#xd4;" horiz-adv-x="849" d="M88 344q0 74 13 175.5t38 220t67.5 232.5t96 208t129 151.5t160.5 57.5q86 0 143.5 -52.5t81 -133t23.5 -185.5q0 -75 -13 -176t-38.5 -219.5t-68.5 -232.5t-96.5 -207.5t-129 -150.5t-160.5 -57q-86 0 -143 51.5t-80 131.5t-23 186zM205 336q0 -127 32 -193.5t107 -66.5 q68 0 130.5 72t106.5 182.5t77 240.5t49 248.5t16 204.5q0 264 -141 264q-69 0 -131.5 -72.5t-106 -183.5t-76 -241.5t-48 -249.5t-15.5 -205zM453 1491l202 295h105l78 -295h-62l-82 225l-172 -225h-69z" />
<glyph unicode="&#xd5;" horiz-adv-x="849" d="M88 344q0 74 13 175.5t38 220t67.5 232.5t96 208t129 151.5t160.5 57.5q86 0 143.5 -52.5t81 -133t23.5 -185.5q0 -75 -13 -176t-38.5 -219.5t-68.5 -232.5t-96.5 -207.5t-129 -150.5t-160.5 -57q-86 0 -143 51.5t-80 131.5t-23 186zM205 336q0 -127 32 -193.5t107 -66.5 q68 0 130.5 72t106.5 182.5t77 240.5t49 248.5t16 204.5q0 264 -141 264q-69 0 -131.5 -72.5t-106 -183.5t-76 -241.5t-48 -249.5t-15.5 -205zM428 1499q61 275 188 275q35 0 53.5 -22t23 -53t7 -62.5t12.5 -53.5t33 -22q69 0 113 200h66q-62 -274 -191 -274q-35 0 -53.5 22 t-23 53.5t-7 62.5t-13.5 53t-34 22q-67 0 -108 -201h-66z" />
<glyph unicode="&#xd6;" horiz-adv-x="849" d="M88 344q0 74 13 175.5t38 220t67.5 232.5t96 208t129 151.5t160.5 57.5q86 0 143.5 -52.5t81 -133t23.5 -185.5q0 -75 -13 -176t-38.5 -219.5t-68.5 -232.5t-96.5 -207.5t-129 -150.5t-160.5 -57q-86 0 -143 51.5t-80 131.5t-23 186zM205 336q0 -127 32 -193.5t107 -66.5 q68 0 130.5 72t106.5 182.5t77 240.5t49 248.5t16 204.5q0 264 -141 264q-69 0 -131.5 -72.5t-106 -183.5t-76 -241.5t-48 -249.5t-15.5 -205zM453 1565q0 32 24 56t58 24q28 0 46.5 -19t18.5 -47q0 -32 -25 -56t-57 -24q-28 0 -46.5 19t-18.5 47zM721 1565q0 32 25 56 t57 24q28 0 46.5 -19t18.5 -47q0 -32 -24 -56t-58 -24q-28 0 -46.5 19t-18.5 47z" />
<glyph unicode="&#xd7;" horiz-adv-x="770" d="M90 463l279 227l-174 221l65 54l172 -224l277 228l51 -64l-277 -227l172 -221l-65 -54l-172 224l-277 -228z" />
<glyph unicode="&#xd8;" horiz-adv-x="849" d="M8 0l101 168q-21 76 -21 176q0 74 13 175.5t38 220t67.5 232.5t96 208t129 151.5t160.5 57.5q123 0 190 -111l54 88h88l-107 -174q23 -84 23 -174q0 -75 -13 -176t-38.5 -219.5t-68.5 -232.5t-96.5 -207.5t-129 -150.5t-160.5 -57q-128 0 -191 107l-49 -82h-86zM205 324 l506 835q-29 129 -129 129q-69 0 -131.5 -72.5t-106 -183.5t-76 -241.5t-48 -249.5t-15.5 -205v-12zM217 201q25 -125 127 -125q68 0 130.5 72t106.5 182.5t77 240.5t49 248.5t16 204.5v10z" />
<glyph unicode="&#xd9;" horiz-adv-x="851" d="M92 240q0 51 10 96l226 1030h110l-227 -1034q-10 -40 -10 -80q0 -86 43 -131t112 -45q81 0 131 58.5t80 197.5l228 1034h110l-227 -1032q-41 -186 -121.5 -272.5t-208.5 -86.5q-115 0 -185.5 69.5t-70.5 195.5zM532 1786h111l96 -295h-71z" />
<glyph unicode="&#xda;" horiz-adv-x="851" d="M92 240q0 51 10 96l226 1030h110l-227 -1034q-10 -40 -10 -80q0 -86 43 -131t112 -45q81 0 131 58.5t80 197.5l228 1034h110l-227 -1032q-41 -186 -121.5 -272.5t-208.5 -86.5q-115 0 -185.5 69.5t-70.5 195.5zM549 1491l225 295h117l-266 -295h-76z" />
<glyph unicode="&#xdb;" horiz-adv-x="851" d="M92 240q0 51 10 96l226 1030h110l-227 -1034q-10 -40 -10 -80q0 -86 43 -131t112 -45q81 0 131 58.5t80 197.5l228 1034h110l-227 -1032q-41 -186 -121.5 -272.5t-208.5 -86.5q-115 0 -185.5 69.5t-70.5 195.5zM453 1491l202 295h105l78 -295h-62l-82 225l-172 -225h-69z " />
<glyph unicode="&#xdc;" horiz-adv-x="851" d="M92 240q0 51 10 96l226 1030h110l-227 -1034q-10 -40 -10 -80q0 -86 43 -131t112 -45q81 0 131 58.5t80 197.5l228 1034h110l-227 -1032q-41 -186 -121.5 -272.5t-208.5 -86.5q-115 0 -185.5 69.5t-70.5 195.5zM455 1565q0 32 24 56t58 24q28 0 46.5 -19t18.5 -47 q0 -32 -25 -56t-57 -24q-28 0 -46.5 19t-18.5 47zM723 1565q0 32 25 56t57 24q28 0 46.5 -19t18.5 -47q0 -32 -24 -56t-58 -24q-28 0 -46.5 19t-18.5 47z" />
<glyph unicode="&#xdd;" horiz-adv-x="710" d="M190 0l129 586l-126 780h112l88 -661l385 661h121l-469 -780l-131 -586h-109zM487 1491l226 295h116l-266 -295h-76z" />
<glyph unicode="&#xde;" horiz-adv-x="745" d="M27 0l301 1366h110l-55 -256h109q109 0 176 -81t67 -212q0 -66 -13.5 -133.5t-45 -134.5t-77 -118.5t-114 -83.5t-151.5 -32h-127l-70 -315h-110zM229 416h117q86 0 150 61t93 149t29 185q0 92 -39.5 146.5t-111.5 54.5h-107z" />
<glyph unicode="&#xdf;" horiz-adv-x="868" d="M37 0l239 1087q32 143 115 221t195 78q109 0 177 -60.5t68 -158.5q0 -51 -16.5 -92.5t-43 -70t-58 -53.5t-63.5 -47.5t-58.5 -47t-43 -58t-16.5 -73.5q0 -48 26 -91.5t62.5 -78.5t73 -73t62.5 -92t26 -118q0 -116 -77.5 -206.5t-198.5 -90.5q-163 0 -244 131l68 68 q31 -52 69.5 -82.5t100.5 -30.5q69 0 122.5 58t53.5 147q0 40 -18 76.5t-45 64t-59 61t-59 65t-45 77t-18 97.5q0 71 31 126t75 89.5t87.5 66t74.5 73.5t31 95q0 64 -40 101.5t-113 37.5q-71 0 -123.5 -50.5t-77.5 -158.5l-240 -1087h-100z" />
<glyph unicode="&#xe0;" d="M53 258q0 75 14.5 170.5t46 199t74.5 189.5t107 141.5t137 55.5q57 0 104.5 -43.5t69.5 -130.5l31 149h100l-219 -989h-100l31 131q-92 -156 -207 -156q-90 0 -139.5 74.5t-49.5 208.5zM160 262q0 -102 30 -149t91 -47q50 0 104 54.5t88 129.5l109 485q-6 78 -46.5 133.5 t-93.5 55.5q-65 0 -121 -76t-89.5 -185t-52.5 -216.5t-19 -184.5zM369 1434h110l96 -295h-71z" />
<glyph unicode="&#xe1;" d="M53 258q0 75 14.5 170.5t46 199t74.5 189.5t107 141.5t137 55.5q57 0 104.5 -43.5t69.5 -130.5l31 149h100l-219 -989h-100l31 131q-92 -156 -207 -156q-90 0 -139.5 74.5t-49.5 208.5zM160 262q0 -102 30 -149t91 -47q50 0 104 54.5t88 129.5l109 485q-6 78 -46.5 133.5 t-93.5 55.5q-65 0 -121 -76t-89.5 -185t-52.5 -216.5t-19 -184.5zM389 1139l225 295h117l-266 -295h-76z" />
<glyph unicode="&#xe2;" d="M53 258q0 75 14.5 170.5t46 199t74.5 189.5t107 141.5t137 55.5q57 0 104.5 -43.5t69.5 -130.5l31 149h100l-219 -989h-100l31 131q-92 -156 -207 -156q-90 0 -139.5 74.5t-49.5 208.5zM160 262q0 -102 30 -149t91 -47q50 0 104 54.5t88 129.5l109 485q-6 78 -46.5 133.5 t-93.5 55.5q-65 0 -121 -76t-89.5 -185t-52.5 -216.5t-19 -184.5zM289 1139l203 295h104l78 -295h-62l-82 225l-172 -225h-69z" />
<glyph unicode="&#xe3;" d="M53 258q0 75 14.5 170.5t46 199t74.5 189.5t107 141.5t137 55.5q57 0 104.5 -43.5t69.5 -130.5l31 149h100l-219 -989h-100l31 131q-92 -156 -207 -156q-90 0 -139.5 74.5t-49.5 208.5zM160 262q0 -102 30 -149t91 -47q50 0 104 54.5t88 129.5l109 485q-6 78 -46.5 133.5 t-93.5 55.5q-65 0 -121 -76t-89.5 -185t-52.5 -216.5t-19 -184.5zM264 1147q60 274 189 274q35 0 53.5 -22t23 -53.5t7 -62.5t12.5 -53t33 -22q68 0 112 201h66q-62 -274 -191 -274q-35 0 -53.5 22t-23 53.5t-7 62.5t-13.5 53t-34 22q-67 0 -108 -201h-66z" />
<glyph unicode="&#xe4;" d="M53 258q0 75 14.5 170.5t46 199t74.5 189.5t107 141.5t137 55.5q57 0 104.5 -43.5t69.5 -130.5l31 149h100l-219 -989h-100l31 131q-92 -156 -207 -156q-90 0 -139.5 74.5t-49.5 208.5zM160 262q0 -102 30 -149t91 -47q50 0 104 54.5t88 129.5l109 485q-6 78 -46.5 133.5 t-93.5 55.5q-65 0 -121 -76t-89.5 -185t-52.5 -216.5t-19 -184.5zM293 1223q0 32 24 56t58 24q28 0 46.5 -19t18.5 -47q0 -32 -25 -56t-57 -24q-28 0 -46.5 19t-18.5 47zM561 1223q0 32 25 56t57 24q28 0 47 -19t19 -47q0 -32 -24 -56t-58 -24q-28 0 -47 19t-19 47z" />
<glyph unicode="&#xe5;" d="M53 258q0 75 14.5 170.5t46 199t74.5 189.5t107 141.5t137 55.5q57 0 104.5 -43.5t69.5 -130.5l31 149h100l-219 -989h-100l31 131q-92 -156 -207 -156q-90 0 -139.5 74.5t-49.5 208.5zM160 262q0 -102 30 -149t91 -47q50 0 104 54.5t88 129.5l109 485q-6 78 -46.5 133.5 t-93.5 55.5q-65 0 -121 -76t-89.5 -185t-52.5 -216.5t-19 -184.5zM348 1276q0 72 55 128t127 56q64 0 105 -43t41 -108q0 -74 -54.5 -128.5t-127.5 -54.5q-64 0 -105 42.5t-41 107.5zM410 1282q0 -40 25 -67t63 -27q48 0 82 34t34 83q0 39 -24.5 66.5t-63.5 27.5 q-47 0 -81.5 -35.5t-34.5 -81.5z" />
<glyph unicode="&#xe6;" horiz-adv-x="1175" d="M53 258q0 75 14.5 170.5t46 199t74.5 189.5t107 141.5t137 55.5q58 0 104.5 -44t67.5 -130l31 149h102l-32 -145q99 170 221 170q202 0 202 -289q0 -137 -36 -262h-471l-5 -21q-12 -61 -12 -143q0 -109 45 -173.5t129 -64.5q44 0 91 33t85 88l56 -65q-109 -142 -230 -142 q-191 0 -217 232l-45 -207h-102l30 131q-92 -156 -206 -156q-90 0 -138.5 74.5t-48.5 208.5zM158 262q0 -102 30 -149t91 -47q51 0 105 54.5t89 129.5l109 485q-6 77 -47.5 133t-94.5 56q-65 0 -121 -76t-89.5 -185t-52.5 -216.5t-19 -184.5zM637 543h371q22 108 22 174 q0 94 -30 152.5t-99 58.5q-52 0 -98.5 -37.5t-78.5 -98t-53.5 -123.5t-33.5 -126z" />
<glyph unicode="&#xe7;" horiz-adv-x="626" d="M49 -313l45 59q42 -65 117 -65q47 0 79 32.5t32 77.5q0 26 -15 41.5t-41 15.5q-31 0 -59 -28l-47 30l78 134q-86 19 -132.5 98.5t-46.5 218.5q0 81 16 174.5t50 189.5t81.5 173.5t117.5 126.5t151 49q119 0 184 -101l-63 -71q-21 41 -54 61.5t-69 20.5 q-60 0 -112.5 -45.5t-87 -116t-59.5 -156.5t-36.5 -166t-11.5 -145q0 -229 149 -229q75 0 134 69l36 -78q-46 -43 -86 -62t-92 -20l-57 -92q19 19 49 19q42 0 69 -31.5t27 -77.5q0 -75 -55.5 -127.5t-132.5 -52.5q-99 0 -158 74z" />
<glyph unicode="&#xe8;" horiz-adv-x="735" d="M57 301q0 60 12 143t42.5 184.5t74.5 186t115.5 142t157.5 57.5q106 0 167.5 -70.5t61.5 -222.5q0 -117 -37 -258h-475q-18 -89 -18 -164q0 -110 43.5 -174t128.5 -64q45 0 93.5 33.5t84.5 87.5l55 -63q-113 -144 -241 -144q-125 0 -195 82t-70 244zM190 543h365h12 q23 97 23 174q0 91 -34.5 151t-102.5 60q-52 0 -98 -37.5t-77.5 -98.5t-53 -123t-34.5 -126zM408 1434h110l96 -295h-71z" />
<glyph unicode="&#xe9;" horiz-adv-x="735" d="M57 301q0 60 12 143t42.5 184.5t74.5 186t115.5 142t157.5 57.5q106 0 167.5 -70.5t61.5 -222.5q0 -117 -37 -258h-475q-18 -89 -18 -164q0 -110 43.5 -174t128.5 -64q45 0 93.5 33.5t84.5 87.5l55 -63q-113 -144 -241 -144q-125 0 -195 82t-70 244zM190 543h365h12 q23 97 23 174q0 91 -34.5 151t-102.5 60q-52 0 -98 -37.5t-77.5 -98.5t-53 -123t-34.5 -126zM422 1139l225 295h117l-266 -295h-76z" />
<glyph unicode="&#xea;" horiz-adv-x="735" d="M57 301q0 60 12 143t42.5 184.5t74.5 186t115.5 142t157.5 57.5q106 0 167.5 -70.5t61.5 -222.5q0 -117 -37 -258h-475q-18 -89 -18 -164q0 -110 43.5 -174t128.5 -64q45 0 93.5 33.5t84.5 87.5l55 -63q-113 -144 -241 -144q-125 0 -195 82t-70 244zM190 543h365h12 q23 97 23 174q0 91 -34.5 151t-102.5 60q-52 0 -98 -37.5t-77.5 -98.5t-53 -123t-34.5 -126zM326 1139l202 295h105l78 -295h-62l-82 225l-172 -225h-69z" />
<glyph unicode="&#xeb;" horiz-adv-x="735" d="M57 301q0 60 12 143t42.5 184.5t74.5 186t115.5 142t157.5 57.5q106 0 167.5 -70.5t61.5 -222.5q0 -117 -37 -258h-475q-18 -89 -18 -164q0 -110 43.5 -174t128.5 -64q45 0 93.5 33.5t84.5 87.5l55 -63q-113 -144 -241 -144q-125 0 -195 82t-70 244zM190 543h365h12 q23 97 23 174q0 91 -34.5 151t-102.5 60q-52 0 -98 -37.5t-77.5 -98.5t-53 -123t-34.5 -126zM326 1223q0 32 24 56t58 24q28 0 46.5 -19t18.5 -47q0 -32 -25 -56t-57 -24q-28 0 -46.5 19t-18.5 47zM594 1223q0 32 25 56t57 24q28 0 46.5 -19t18.5 -47q0 -32 -24 -56t-58 -24 q-28 0 -46.5 19t-18.5 47z" />
<glyph unicode="&#xec;" horiz-adv-x="348" d="M14 0l219 989h101l-219 -989h-101zM203 1434h110l97 -295h-72z" />
<glyph unicode="&#xed;" horiz-adv-x="348" d="M14 0l219 989h101l-219 -989h-101zM219 1139l225 295h117l-266 -295h-76z" />
<glyph unicode="&#xee;" horiz-adv-x="348" d="M14 0l219 989h101l-219 -989h-101zM125 1139l203 295h104l78 -295h-61l-82 225l-172 -225h-70z" />
<glyph unicode="&#xef;" horiz-adv-x="348" d="M14 0l219 989h101l-219 -989h-101zM127 1223q0 32 24 56t58 24q28 0 46.5 -19t18.5 -47q0 -32 -24.5 -56t-56.5 -24q-28 0 -47 19t-19 47zM395 1223q0 32 25 56t57 24q28 0 47 -19t19 -47q0 -32 -24 -56t-58 -24q-28 0 -47 19t-19 47z" />
<glyph unicode="&#xf0;" horiz-adv-x="751" d="M57 291q0 83 16 177.5t49.5 188.5t78 170.5t108 124t133.5 47.5q61 0 105 -36.5t59 -106.5q-3 130 -31 283l-225 -68l-14 66l225 67q-21 93 -47 162l104 35q34 -116 46 -166l157 47l15 -63l-158 -50q29 -138 29 -327q0 -100 -14 -212t-46 -230t-78 -211.5t-117.5 -153.5 t-156.5 -60q-238 0 -238 316zM162 283q0 -121 36 -169t97 -48q67 0 125 73.5t92.5 179t54 210t19.5 178.5q0 49 -11.5 92t-43.5 76.5t-80 33.5q-67 0 -124.5 -72.5t-92 -176.5t-53.5 -205.5t-19 -171.5z" />
<glyph unicode="&#xf1;" horiz-adv-x="737" d="M14 0l219 989h101l-31 -135q112 160 236 160q71 0 111 -37.5t40 -106.5q0 -32 -10 -67l-176 -803h-103l174 782q9 36 9 56q0 86 -84 86q-57 0 -118.5 -54t-105.5 -129l-161 -741h-101zM297 1147q60 274 188 274q35 0 53.5 -22t23 -53.5t7 -62.5t12.5 -53t33 -22 q69 0 113 201h66q-62 -274 -191 -274q-35 0 -53.5 22t-23 53.5t-7 62.5t-13.5 53t-34 22q-68 0 -109 -201h-65z" />
<glyph unicode="&#xf2;" horiz-adv-x="751" d="M57 281q0 86 16 183.5t49.5 195.5t80.5 176.5t114.5 128t145.5 49.5q107 0 168 -75t61 -230q0 -86 -16 -183.5t-49.5 -195.5t-80 -177t-114 -128.5t-145.5 -49.5q-107 0 -168.5 75.5t-61.5 230.5zM162 279q0 -116 34 -164.5t97 -48.5q66 0 124 71t94 174.5t56.5 210 t20.5 187.5q0 117 -34 166t-97 49q-66 0 -124 -71.5t-94 -175t-56.5 -210.5t-20.5 -188zM406 1434h110l96 -295h-71z" />
<glyph unicode="&#xf3;" horiz-adv-x="751" d="M57 281q0 86 16 183.5t49.5 195.5t80.5 176.5t114.5 128t145.5 49.5q107 0 168 -75t61 -230q0 -86 -16 -183.5t-49.5 -195.5t-80 -177t-114 -128.5t-145.5 -49.5q-107 0 -168.5 75.5t-61.5 230.5zM162 279q0 -116 34 -164.5t97 -48.5q66 0 124 71t94 174.5t56.5 210 t20.5 187.5q0 117 -34 166t-97 49q-66 0 -124 -71.5t-94 -175t-56.5 -210.5t-20.5 -188zM422 1139l225 295h117l-266 -295h-76z" />
<glyph unicode="&#xf4;" horiz-adv-x="751" d="M57 281q0 86 16 183.5t49.5 195.5t80.5 176.5t114.5 128t145.5 49.5q107 0 168 -75t61 -230q0 -86 -16 -183.5t-49.5 -195.5t-80 -177t-114 -128.5t-145.5 -49.5q-107 0 -168.5 75.5t-61.5 230.5zM162 279q0 -116 34 -164.5t97 -48.5q66 0 124 71t94 174.5t56.5 210 t20.5 187.5q0 117 -34 166t-97 49q-66 0 -124 -71.5t-94 -175t-56.5 -210.5t-20.5 -188zM326 1139l202 295h105l78 -295h-62l-82 225l-172 -225h-69z" />
<glyph unicode="&#xf5;" horiz-adv-x="751" d="M57 281q0 86 16 183.5t49.5 195.5t80.5 176.5t114.5 128t145.5 49.5q107 0 168 -75t61 -230q0 -86 -16 -183.5t-49.5 -195.5t-80 -177t-114 -128.5t-145.5 -49.5q-107 0 -168.5 75.5t-61.5 230.5zM162 279q0 -116 34 -164.5t97 -48.5q66 0 124 71t94 174.5t56.5 210 t20.5 187.5q0 117 -34 166t-97 49q-66 0 -124 -71.5t-94 -175t-56.5 -210.5t-20.5 -188zM301 1147q60 274 188 274q35 0 53.5 -22t23 -53.5t7 -62.5t12.5 -53t33 -22q69 0 113 201h66q-62 -274 -191 -274q-35 0 -53.5 22t-23 53.5t-7 62.5t-13.5 53t-34 22q-67 0 -108 -201 h-66z" />
<glyph unicode="&#xf6;" horiz-adv-x="751" d="M57 281q0 86 16 183.5t49.5 195.5t80.5 176.5t114.5 128t145.5 49.5q107 0 168 -75t61 -230q0 -86 -16 -183.5t-49.5 -195.5t-80 -177t-114 -128.5t-145.5 -49.5q-107 0 -168.5 75.5t-61.5 230.5zM162 279q0 -116 34 -164.5t97 -48.5q66 0 124 71t94 174.5t56.5 210 t20.5 187.5q0 117 -34 166t-97 49q-66 0 -124 -71.5t-94 -175t-56.5 -210.5t-20.5 -188zM330 1223q0 32 24 56t58 24q28 0 46.5 -19t18.5 -47q0 -32 -25 -56t-57 -24q-28 0 -46.5 19t-18.5 47zM598 1223q0 32 25 56t57 24q28 0 46.5 -19t18.5 -47q0 -33 -23.5 -56.5 t-57.5 -23.5q-28 0 -47 19t-19 47z" />
<glyph unicode="&#xf7;" horiz-adv-x="765" d="M92 649l19 82h647l-19 -82h-647zM283 389q0 35 25.5 59.5t60.5 24.5q31 0 51 -20.5t20 -51.5q0 -35 -25.5 -59.5t-60.5 -24.5q-31 0 -51 20.5t-20 51.5zM412 971q0 35 25.5 59.5t62.5 24.5q29 0 50 -21.5t21 -50.5q0 -35 -25.5 -59.5t-62.5 -24.5q-29 0 -50 20.5 t-21 51.5z" />
<glyph unicode="&#xf8;" horiz-adv-x="751" d="M-8 0l86 125q-21 65 -21 156q0 86 16 183.5t49.5 195.5t80.5 176.5t114.5 128t145.5 49.5q114 0 172 -82l41 57h80l-86 -125q22 -64 22 -155q0 -86 -16 -183.5t-49.5 -195.5t-80 -177t-114 -128.5t-145.5 -49.5q-115 0 -174 82l-39 -57h-82zM162 246l409 592 q-31 86 -114 86q-66 0 -124 -71.5t-94 -175t-56.5 -210.5t-20.5 -188v-33zM178 152q27 -86 115 -86q66 0 124 71t94 174.5t56.5 210t20.5 187.5q0 24 -2 34z" />
<glyph unicode="&#xf9;" horiz-adv-x="737" d="M45 119q0 32 10 67l178 803h101l-174 -782q-6 -27 -6 -55q0 -45 20 -65.5t62 -20.5q58 0 116 49t103 123l166 751h102l-219 -989h-103l31 135q-112 -160 -235 -160q-71 0 -111.5 38t-40.5 106zM399 1434h111l96 -295h-71z" />
<glyph unicode="&#xfa;" horiz-adv-x="737" d="M45 119q0 32 10 67l178 803h101l-174 -782q-6 -27 -6 -55q0 -45 20 -65.5t62 -20.5q58 0 116 49t103 123l166 751h102l-219 -989h-103l31 135q-112 -160 -235 -160q-71 0 -111.5 38t-40.5 106zM416 1139l225 295h117l-266 -295h-76z" />
<glyph unicode="&#xfb;" horiz-adv-x="737" d="M45 119q0 32 10 67l178 803h101l-174 -782q-6 -27 -6 -55q0 -45 20 -65.5t62 -20.5q58 0 116 49t103 123l166 751h102l-219 -989h-103l31 135q-112 -160 -235 -160q-71 0 -111.5 38t-40.5 106zM322 1139l202 295h105l78 -295h-62l-82 225l-172 -225h-69z" />
<glyph unicode="&#xfc;" horiz-adv-x="737" d="M45 119q0 32 10 67l178 803h101l-174 -782q-6 -27 -6 -55q0 -45 20 -65.5t62 -20.5q58 0 116 49t103 123l166 751h102l-219 -989h-103l31 135q-112 -160 -235 -160q-71 0 -111.5 38t-40.5 106zM326 1223q0 32 24 56t58 24q28 0 46.5 -19t18.5 -47q0 -32 -25 -56t-57 -24 q-28 0 -46.5 19t-18.5 47zM594 1223q0 32 25 56t57 24q28 0 46.5 -19t18.5 -47q0 -32 -24 -56t-58 -24q-28 0 -46.5 19t-18.5 47z" />
<glyph unicode="&#xfd;" horiz-adv-x="620" d="M-131 -383l37 86q11 -14 47 -14q33 0 54 21.5t48 78.5l84 178l-4 1022h105l-17 -858l367 858h112l-559 -1222q-44 -94 -88 -131t-102 -37q-48 0 -84 18zM354 1139l226 295h116l-266 -295h-76z" />
<glyph unicode="&#xfe;" d="M-70 -377l385 1743h101l-113 -508q91 156 207 156q90 0 138 -74t48 -209q0 -75 -14.5 -170.5t-46 -199t-74.5 -189.5t-107 -141.5t-137 -55.5q-57 0 -104 44t-68 131l-114 -527h-101zM168 254q6 -77 47 -132.5t94 -55.5q52 0 99.5 50.5t80 127.5t56.5 168t35.5 173 t11.5 142q0 103 -30 150t-91 47q-51 0 -105.5 -55t-89.5 -130z" />
<glyph unicode="&#xff;" horiz-adv-x="620" d="M-131 -383l37 86q11 -14 47 -14q33 0 54 21.5t48 78.5l84 178l-4 1022h105l-17 -858l367 858h112l-559 -1222q-44 -94 -88 -131t-102 -37q-48 0 -84 18zM262 1223q0 32 24 56t58 24q28 0 47 -19t19 -47q0 -32 -25 -56t-57 -24q-28 0 -47 19t-19 47zM530 1223q0 32 25 56 t57 24q28 0 47 -19t19 -47q0 -32 -24 -56t-58 -24q-28 0 -47 19t-19 47z" />
<glyph unicode="&#x152;" horiz-adv-x="1183" d="M88 344q0 77 13.5 179t39 220.5t69 231t98.5 205.5t132.5 149.5t165.5 56.5q25 0 47.5 -7t48 -23.5t44.5 -52t28 -86.5l33 149h469l-21 -100h-360l-115 -514h346l-22 -101h-346l-121 -551h358l-20 -100h-469l31 150q-59 -98 -121.5 -136.5t-116.5 -38.5 q-102 0 -156.5 100t-54.5 269zM205 336q0 -260 125 -260q68 0 134 74t120 204l145 658q-2 139 -33.5 206.5t-99.5 67.5q-74 0 -139.5 -72t-110 -181.5t-77.5 -240.5t-48.5 -249.5t-15.5 -206.5z" />
<glyph unicode="&#x153;" horiz-adv-x="1206" d="M57 281q0 94 16.5 194.5t50.5 197t80.5 172.5t113 122.5t141.5 46.5q91 0 141.5 -62t58.5 -174q109 236 275 236q225 0 225 -293q0 -137 -37 -258h-469q-16 -108 -16 -164q0 -119 44 -178.5t124 -59.5q86 0 176 121l53 -63q-111 -144 -237 -144q-108 0 -167 64.5 t-67 181.5q-57 -121 -124.5 -183.5t-155.5 -62.5q-226 0 -226 306zM162 279q0 -216 127 -216q54 0 102.5 48.5t81.5 123t58 163t37 169.5t12 142q0 112 -31 163.5t-96 51.5q-53 0 -101.5 -47t-82 -120t-58.5 -160.5t-37 -170t-12 -147.5zM672 543h366q9 28 16 84t7 90 q0 103 -34 157t-99 54q-52 0 -97 -36.5t-75.5 -97t-50.5 -122.5t-33 -129z" />
<glyph unicode="&#x178;" horiz-adv-x="710" d="M190 0l129 586l-126 780h112l88 -661l385 661h121l-469 -780l-131 -586h-109zM391 1565q0 32 24 56t58 24q28 0 47 -19t19 -47q0 -32 -25 -56t-57 -24q-28 0 -47 19t-19 47zM659 1565q0 32 25 56t57 24q28 0 47 -19t19 -47q0 -32 -24 -56t-58 -24q-28 0 -47 19t-19 47z " />
<glyph unicode="&#x2c6;" horiz-adv-x="385" d="M141 1139l203 295h105l77 -295h-61l-82 225l-172 -225h-70z" />
<glyph unicode="&#x2dc;" horiz-adv-x="438" d="M143 1147q60 274 189 274q35 0 53.5 -22t23 -53.5t7 -62.5t12.5 -53t33 -22q68 0 112 201h66q-62 -274 -190 -274q-43 0 -62 33.5t-19.5 73t-11.5 73t-39 33.5q-67 0 -108 -201h-66z" />
<glyph unicode="&#x2000;" horiz-adv-x="893" />
<glyph unicode="&#x2001;" horiz-adv-x="1786" />
<glyph unicode="&#x2002;" horiz-adv-x="893" />
<glyph unicode="&#x2003;" horiz-adv-x="1786" />
<glyph unicode="&#x2004;" horiz-adv-x="595" />
<glyph unicode="&#x2005;" horiz-adv-x="446" />
<glyph unicode="&#x2006;" horiz-adv-x="297" />
<glyph unicode="&#x2007;" horiz-adv-x="297" />
<glyph unicode="&#x2008;" horiz-adv-x="223" />
<glyph unicode="&#x2009;" horiz-adv-x="357" />
<glyph unicode="&#x200a;" horiz-adv-x="99" />
<glyph unicode="&#x2010;" horiz-adv-x="477" d="M49 449l21 94h352l-19 -94h-354z" />
<glyph unicode="&#x2011;" horiz-adv-x="477" d="M49 449l21 94h352l-19 -94h-354z" />
<glyph unicode="&#x2012;" horiz-adv-x="477" d="M49 449l21 94h352l-19 -94h-354z" />
<glyph unicode="&#x2013;" horiz-adv-x="942" d="M49 449l21 94h819l-21 -94h-819z" />
<glyph unicode="&#x2014;" horiz-adv-x="1310" d="M49 449l21 94h1187l-20 -94h-1188z" />
<glyph unicode="&#x2018;" horiz-adv-x="446" d="M264 1092q0 83 62 167t145 127l47 -51q-57 -29 -100.5 -77t-57.5 -95h15q28 0 47.5 -21t19.5 -50q0 -39 -28.5 -67t-65.5 -28t-60.5 25.5t-23.5 69.5z" />
<glyph unicode="&#x2019;" horiz-adv-x="446" d="M238 1049q57 29 100 76.5t57 95.5h-14q-28 0 -48 21t-20 50q0 39 28 66.5t67 27.5q37 0 60.5 -25t23.5 -71q0 -83 -61.5 -166.5t-145.5 -126.5z" />
<glyph unicode="&#x201a;" horiz-adv-x="446" d="M-37 -184q57 29 100.5 77t57.5 95h-15q-27 0 -47 20.5t-20 50.5q0 38 28.5 66.5t65.5 28.5t60.5 -25.5t23.5 -71.5q0 -83 -62 -167.5t-145 -127.5z" />
<glyph unicode="&#x201c;" horiz-adv-x="731" d="M266 1092q0 83 61.5 167t143.5 127l49 -51q-57 -29 -102 -77t-58 -95h15q28 0 47.5 -21t19.5 -50q0 -39 -27.5 -67t-64.5 -28t-60.5 25.5t-23.5 69.5zM547 1092q0 83 61.5 167t143.5 127l49 -51q-58 -30 -102 -77.5t-56 -94.5h12q28 0 49 -21t21 -50q0 -39 -28.5 -67 t-65.5 -28t-60.5 25.5t-23.5 69.5z" />
<glyph unicode="&#x201d;" horiz-adv-x="731" d="M238 1049q57 29 100 76.5t57 95.5h-14q-28 0 -48 21t-20 50q0 39 28 66.5t67 27.5q37 0 60.5 -25t23.5 -71q0 -83 -61.5 -166.5t-145.5 -126.5zM518 1049q57 29 100.5 77t57.5 95h-14q-28 0 -48 21t-20 50q0 39 28.5 66.5t65.5 27.5t60.5 -25t23.5 -71 q0 -83 -61.5 -166.5t-145.5 -126.5z" />
<glyph unicode="&#x201e;" horiz-adv-x="731" d="M-37 -184q57 29 100.5 77t57.5 95h-15q-27 0 -47 20.5t-20 50.5q0 38 28.5 66.5t65.5 28.5t60.5 -25.5t23.5 -71.5q0 -83 -62 -167.5t-145 -127.5zM244 -184q57 29 100 76.5t57 95.5h-14q-27 0 -47.5 20.5t-20.5 50.5q0 38 29 66.5t66 28.5t60.5 -25.5t23.5 -71.5 q0 -83 -61.5 -167.5t-143.5 -127.5z" />
<glyph unicode="&#x2022;" horiz-adv-x="733" d="M156 477q0 92 70 160t163 68q82 0 135.5 -53.5t53.5 -135.5q0 -92 -70.5 -159.5t-163.5 -67.5q-82 0 -135 53t-53 135z" />
<glyph unicode="&#x2026;" horiz-adv-x="1335" d="M39 59q0 40 28 67.5t68 27.5q32 0 55 -23t23 -57q0 -39 -27.5 -66.5t-66.5 -27.5q-34 0 -57 22.5t-23 56.5zM485 59q0 40 27.5 67.5t67.5 27.5q33 0 55 -23t22 -57q0 -40 -27 -67t-67 -27q-34 0 -56 22.5t-22 56.5zM930 59q0 39 28 67t66 28q34 0 57 -23t23 -57 q0 -40 -28 -67t-68 -27q-32 0 -55 23t-23 56z" />
<glyph unicode="&#x202f;" horiz-adv-x="357" />
<glyph unicode="&#x2039;" horiz-adv-x="401" d="M59 498l267 362h98l-272 -371l100 -360h-90z" />
<glyph unicode="&#x203a;" horiz-adv-x="401" d="M-23 129l273 371l-100 360h90l102 -368l-266 -363h-99z" />
<glyph unicode="&#x205f;" horiz-adv-x="446" />
<glyph unicode="&#x20ac;" horiz-adv-x="786" d="M33 498l18 80h80q13 92 43 213h-76l19 79h78q31 107 70.5 195.5t91 163.5t118 117.5t141.5 42.5q108 0 166.5 -77.5t71.5 -207.5l-104 -21q-18 205 -144 205q-48 0 -92.5 -33.5t-81 -93.5t-65.5 -131.5t-54 -159.5h275l-19 -79h-276q-30 -140 -41 -213h270l-18 -80h-264 q-11 -116 -11 -162q0 -137 34 -198.5t106 -61.5q55 0 101.5 44t96.5 134l90 -47q-65 -116 -137.5 -174t-161.5 -58q-116 0 -180.5 92t-64.5 277q0 75 8 154h-88z" />
<glyph unicode="&#x2122;" horiz-adv-x="765" d="M213 915l88 398h-86l10 53h230l-11 -53h-86l-88 -398h-57zM430 915l98 451h88l21 -322l160 322h88l-99 -451h-57l82 373l-195 -373h-16l-31 373l-82 -373h-57z" />
<glyph unicode="&#x25fc;" horiz-adv-x="993" d="M0 0v993h993v-993h-993z" />
</font>
</defs>
</svg>
