<?xml version="1.0" standalone="no"?>
<!DOCTYPE svg PUBLIC "-//W3C//DTD SVG 1.1//EN" "http://www.w3.org/Graphics/SVG/1.1/DTD/svg11.dtd" >
<svg xmlns="http://www.w3.org/2000/svg">
<metadata></metadata>
<defs>
<font id="proxima_nova_excn_rgregular" horiz-adv-x="774" >
<font-face units-per-em="2048" ascent="1618" descent="-430" />
<missing-glyph horiz-adv-x="350" />
<glyph unicode="&#xfb01;" horiz-adv-x="827" d="M47 866v123h96v164q0 107 54 170t141 63q63 0 106 -28l-34 -111q-15 15 -43 15q-37 0 -59.5 -29.5t-22.5 -79.5v-164h133v-123h-133v-866h-142v866h-96zM547 1231q0 39 28.5 67.5t67.5 28.5q40 0 69 -28t29 -68t-29 -68t-69 -28q-39 0 -67.5 28.5t-28.5 67.5zM573 0v989 h140v-989h-140z" />
<glyph unicode="&#xfb02;" horiz-adv-x="827" d="M47 866v123h96v164q0 107 54 170t141 63q63 0 106 -28l-34 -111q-15 15 -43 15q-37 0 -59.5 -29.5t-22.5 -79.5v-164h133v-123h-133v-866h-142v866h-96zM573 0v1366h140v-1366h-140z" />
<glyph unicode="&#xfb03;" horiz-adv-x="1286" d="M47 866v123h96v164q0 109 55 171t156 62q90 0 142 -55l-50 -110q-30 41 -71 41q-90 0 -90 -109v-164h133v-123h-133v-866h-142v866h-96zM506 866v123h96v164q0 107 54 170t141 63q63 0 106 -28l-35 -111q-15 15 -43 15q-37 0 -59.5 -29.5t-22.5 -79.5v-164h134v-123h-134 v-866h-141v866h-96zM1006 1231q0 39 28.5 67.5t67.5 28.5q40 0 69 -28t29 -68t-29 -68t-69 -28q-39 0 -67.5 28.5t-28.5 67.5zM1032 0v989h139v-989h-139z" />
<glyph unicode="&#xfb04;" horiz-adv-x="1286" d="M47 866v123h96v164q0 109 55 171t156 62q90 0 142 -55l-50 -110q-30 41 -71 41q-90 0 -90 -109v-164h133v-123h-133v-866h-142v866h-96zM506 866v123h96v164q0 107 54 170t141 63q63 0 106 -28l-35 -111q-15 15 -43 15q-37 0 -59.5 -29.5t-22.5 -79.5v-164h134v-123h-134 v-866h-141v866h-96zM1032 0v1366h139v-1366h-139z" />
<glyph horiz-adv-x="0" />
<glyph horiz-adv-x="682" />
<glyph unicode=" "  horiz-adv-x="350" />
<glyph unicode="&#x09;" horiz-adv-x="350" />
<glyph unicode="&#xa0;" horiz-adv-x="350" />
<glyph unicode="!" horiz-adv-x="464" d="M125 86q0 43 31.5 73.5t74.5 30.5q44 0 75.5 -30.5t31.5 -73.5t-31.5 -74.5t-75.5 -31.5q-43 0 -74.5 31.5t-31.5 74.5zM143 1366h176l-28 -991h-117z" />
<glyph unicode="&#x22;" horiz-adv-x="688" d="M113 1298q0 36 26 62t62 26t62 -26t26 -62q0 -13 -13.5 -124.5t-26.5 -216.5l-13 -105h-72q-51 417 -51 446zM399 1298q0 37 25.5 62.5t62.5 25.5t62.5 -25.5t25.5 -62.5l-51 -446h-71q-54 417 -54 446z" />
<glyph unicode="#" horiz-adv-x="866" d="M35 375l22 100h142l96 416h-141l20 100h143l86 375h117l-86 -375h144l86 375h114l-86 -375h139l-20 -100h-143l-97 -416h146l-23 -100h-147l-86 -375h-117l90 375h-145l-86 -375h-117l88 375h-139zM313 475h142l98 416h-143z" />
<glyph unicode="$" horiz-adv-x="702" d="M41 100l78 123q35 -49 88 -77.5t110 -30.5v520q-40 35 -58.5 52t-53.5 52.5t-52 63.5t-37.5 68t-29 85t-8.5 97q0 123 66 212.5t173 114.5v193h115v-187q120 -12 205 -94l-68 -118q-58 61 -137 73v-485q41 -37 67 -63t60 -68.5t53 -83t33 -96t14 -117.5 q0 -127 -61.5 -220t-165.5 -124v-195h-115v180q-169 6 -276 125zM236 1059q0 -101 81 -189v357q-81 -51 -81 -168zM432 152q72 62 72 174q0 105 -72 194v-368z" />
<glyph unicode="%" horiz-adv-x="1167" d="M59 1049q0 147 68 242t180 95t179 -94.5t67 -242.5q0 -146 -67 -241t-179 -95t-180 95.5t-68 240.5zM166 1049q0 -103 38.5 -170.5t102.5 -67.5t101.5 67.5t37.5 170.5q0 104 -37.5 172.5t-101.5 68.5t-102.5 -68.5t-38.5 -172.5zM262 0l559 1366h86l-563 -1366h-82z M614 309q0 148 67 244t179 96t180 -96t68 -244q0 -145 -68 -239.5t-180 -94.5t-179 94.5t-67 239.5zM721 309q0 -102 37.5 -169.5t101.5 -67.5q65 0 102 67.5t37 169.5q0 106 -36.5 174t-102.5 68q-64 0 -101.5 -68t-37.5 -174z" />
<glyph unicode="&#x26;" horiz-adv-x="817" d="M78 332q0 97 28.5 179t65 132.5t92.5 106.5q-71 190 -71 303q0 152 59 242.5t160 90.5q84 0 143 -75t59 -189q0 -66 -15 -121.5t-45 -102t-58.5 -79.5t-70.5 -77q-6 -5 -9.5 -9t-7.5 -8q39 -101 84 -186q75 -147 81 -158q36 115 70 283l119 -52q-49 -222 -115 -362 q69 -114 160 -250h-158q-25 39 -71 121q-102 -146 -240 -146q-116 0 -188 96t-72 261zM221 338q0 -115 39 -179.5t98 -64.5q83 0 156 139q-73 129 -111 209q-37 71 -86 181q-96 -126 -96 -285zM326 1053q0 -92 36 -205q63 64 96.5 127t33.5 145q0 77 -23 116.5t-57 39.5 q-45 0 -65.5 -52.5t-20.5 -170.5z" />
<glyph unicode="'" horiz-adv-x="399" d="M113 1298q0 36 26 62t62 26t62 -26t26 -62q0 -13 -13.5 -124.5t-26.5 -216.5l-13 -105h-72q-51 417 -51 446z" />
<glyph unicode="(" horiz-adv-x="428" d="M96 498q0 477 195 905l98 -41q-68 -210 -102.5 -414t-34.5 -450q0 -245 34.5 -450t102.5 -413l-98 -43q-195 428 -195 906z" />
<glyph unicode=")" horiz-adv-x="428" d="M39 -365l96 -43q197 426 197 906q0 479 -197 905l-96 -41q68 -210 102.5 -414t34.5 -450q0 -245 -34.5 -450t-102.5 -413z" />
<glyph unicode="*" horiz-adv-x="620" d="M35 987l211 109l-211 106l45 76l199 -127l-13 235h88l-12 -235l199 127l45 -76l-211 -106l211 -109l-45 -76l-199 129l12 -237h-88l13 237l-199 -129z" />
<glyph unicode="+" d="M59 641v100h273v303h110v-303h273v-100h-273v-317h-110v317h-273z" />
<glyph unicode="," horiz-adv-x="466" d="M117 -199q50 34 86.5 88t40.5 103l-9 -2q-9 -2 -14 -2q-41 0 -67.5 28.5t-26.5 71.5q0 42 29 72t73 30q50 0 84.5 -39.5t34.5 -107.5q0 -89 -45 -169t-115 -130z" />
<glyph unicode="-" horiz-adv-x="481" d="M61 434v123h359v-123h-359z" />
<glyph unicode="." horiz-adv-x="464" d="M127 86q0 43 30.5 73.5t73.5 30.5q44 0 75.5 -30.5t31.5 -73.5t-31.5 -74.5t-75.5 -31.5q-43 0 -73.5 31.5t-30.5 74.5z" />
<glyph unicode="/" horiz-adv-x="409" d="M0 -41l301 1448h109l-301 -1448h-109z" />
<glyph unicode="0" horiz-adv-x="843" d="M88 682q0 104 9 198.5t33 189t60.5 163t96.5 111t137 42.5q76 0 135.5 -42.5t96 -111t60.5 -163t33 -189t9 -198.5q0 -85 -6.5 -164.5t-21 -161.5t-40 -149t-61.5 -120t-88.5 -82.5t-116.5 -29.5q-77 0 -137 43t-96.5 112.5t-60.5 164.5t-33 189.5t-9 197.5zM248 682 q0 -57 1 -100.5t3.5 -98.5t8 -96.5t14 -86t22 -76t31 -57.5t42 -39t54.5 -13q46 0 79.5 35t51 86.5t28 133.5t13 150.5t2.5 161.5q0 77 -2 135t-7.5 128.5t-17.5 120t-30.5 93t-48 66t-68.5 22.5t-68.5 -22.5t-48.5 -66t-31 -93.5t-18 -119.5t-8 -128.5t-2 -135z" />
<glyph unicode="1" horiz-adv-x="598" d="M18 1040l314 326h137v-1366h-154v1161l-204 -217z" />
<glyph unicode="2" horiz-adv-x="800" d="M78 1163q61 113 134.5 168t186.5 55q141 0 225.5 -95t84.5 -249q0 -93 -31.5 -191.5t-117 -261.5t-259.5 -452h410v-137h-607v129q206 329 296.5 491t119.5 246.5t29 173.5q0 90 -43.5 148.5t-112.5 58.5q-131 0 -205 -170z" />
<glyph unicode="3" horiz-adv-x="798" d="M59 205l115 84q76 -174 205 -174q176 0 176 264q0 72 -17 124.5t-45.5 79t-58.5 38.5t-63 12q-60 0 -76 -2v141q16 -2 72 -2q79 0 126.5 60t47.5 174q0 243 -162 243q-125 0 -193 -160l-112 78q46 106 129.5 163.5t181.5 57.5q142 0 226.5 -89.5t84.5 -272.5 q0 -110 -52 -200t-140 -117q88 -21 147.5 -115.5t59.5 -222.5q0 -178 -84 -286t-244 -108q-110 0 -195 65t-129 165z" />
<glyph unicode="4" horiz-adv-x="749" d="M29 354v142l399 870h184v-874h109v-138h-109v-354h-153v354h-430zM160 492h299v679z" />
<glyph unicode="5" horiz-adv-x="804" d="M78 205l112 82q34 -87 81 -129.5t120 -42.5q54 0 94.5 44t60 112t19.5 147q0 305 -157 305q-55 0 -95 -28.5t-84 -100.5l-118 41v731h559v-137h-404v-484q30 52 79 83.5t108 31.5q125 0 198.5 -114.5t73.5 -325.5q0 -120 -38.5 -220.5t-114.5 -162.5t-175 -62 q-119 0 -192 58t-127 172z" />
<glyph unicode="6" horiz-adv-x="802" d="M88 682q0 94 8 178.5t25.5 164.5t46.5 145t69 114t95.5 75.5t122.5 26.5q84 0 152.5 -47t105.5 -129l-92 -102q-28 69 -66 104t-96 35q-61 0 -104.5 -50.5t-66 -135.5t-32.5 -176t-10 -193v-28q30 83 86 136.5t131 53.5q118 0 193 -113t75 -323q0 -118 -32.5 -216 t-104 -162.5t-170.5 -64.5q-96 0 -164.5 59t-104.5 163.5t-51.5 222.5t-15.5 262zM248 506q6 -391 170 -391q42 0 73 25t48 69t24.5 94.5t7.5 110.5q0 305 -151 305q-109 0 -172 -213z" />
<glyph unicode="7" horiz-adv-x="675" d="M43 1229v137h590v-106l-314 -1260h-163l309 1229h-422z" />
<glyph unicode="8" horiz-adv-x="800" d="M80 328q0 123 66.5 227.5t148.5 149.5q-78 42 -139.5 133t-61.5 209q0 164 86.5 251.5t218.5 87.5q134 0 221 -87.5t87 -251.5q0 -117 -62 -208.5t-139 -133.5q81 -46 148 -149.5t67 -225.5q0 -166 -83.5 -260.5t-238.5 -94.5q-154 0 -236.5 94t-82.5 259zM238 346 q0 -111 44 -171t117 -60t118.5 60.5t45.5 172.5q0 63 -21 121.5t-50 94t-54 57t-39 24.5q-14 -3 -39 -24.5t-53 -57.5t-48.5 -94.5t-20.5 -122.5zM250 1024q0 -59 19.5 -110.5t47 -82.5t48.5 -48t34 -23q13 5 34.5 22.5t49 48.5t47 82.5t19.5 110.5q0 105 -38 164t-112 59 q-72 0 -110.5 -59t-38.5 -164z" />
<glyph unicode="9" horiz-adv-x="802" d="M72 946q0 118 32.5 216t104 162.5t170.5 64.5q78 0 138 -40t97 -106t61 -160t33 -191t9 -210q0 -143 -19.5 -264t-61 -223t-115 -160t-173.5 -58q-84 0 -152.5 47.5t-105.5 129.5l94 102q26 -69 64.5 -104t97.5 -35t102 49.5t65.5 133.5t33 176t10.5 194v30 q-28 -83 -84 -136.5t-131 -53.5q-119 0 -194.5 113t-75.5 323zM231 950q0 -305 152 -305q109 0 172 213q-6 391 -168 391q-43 0 -74.5 -25t-48.5 -69t-25 -94.5t-8 -110.5z" />
<glyph unicode=":" horiz-adv-x="462" d="M127 86q0 43 30.5 73.5t73.5 30.5q44 0 75.5 -30.5t31.5 -73.5t-31.5 -74.5t-75.5 -31.5q-43 0 -73.5 31.5t-30.5 74.5zM127 897q0 43 31 75t73 32q44 0 75.5 -32t31.5 -75q0 -42 -31.5 -73t-75.5 -31q-42 0 -73 31t-31 73z" />
<glyph unicode=";" horiz-adv-x="464" d="M117 -195q50 32 86.5 87t40.5 104q-4 -4 -23 -4q-41 0 -67.5 27.5t-26.5 70.5t29 74t73 31q49 0 84 -41t35 -109q0 -89 -45 -169t-115 -130zM127 897q0 44 30.5 75.5t73.5 31.5q44 0 75.5 -31.5t31.5 -75.5q0 -42 -31.5 -73t-75.5 -31q-42 0 -73 31t-31 73z" />
<glyph unicode="&#x3c;" d="M59 635v100l656 305v-120l-531 -236l531 -233v-121z" />
<glyph unicode="=" d="M59 434v101h656v-101h-656zM59 834v100h656v-100h-656z" />
<glyph unicode="&#x3e;" d="M59 330v121l531 233l-531 236v120l656 -305v-100z" />
<glyph unicode="?" horiz-adv-x="641" d="M78 1286q93 103 235 103q121 0 200 -83.5t79 -205.5q0 -75 -24.5 -141t-59.5 -114.5t-70 -93.5t-59.5 -99t-24.5 -111q0 -60 41 -111l-121 -55q-53 71 -53 172q0 67 22.5 125t54.5 101.5t63.5 86t54 97.5t22.5 118q0 68 -43 123t-110 55q-42 0 -73.5 -16.5t-64.5 -52.5z M221 86q0 43 31.5 73.5t75.5 30.5q43 0 73.5 -30.5t30.5 -73.5t-30.5 -74.5t-73.5 -31.5q-44 0 -75.5 31.5t-31.5 74.5z" />
<glyph unicode="@" horiz-adv-x="1226" d="M72 440q0 130 35 259.5t98.5 238t146.5 192.5t186 131.5t210 47.5q184 0 295.5 -134t111.5 -368q0 -174 -44 -321.5t-113.5 -229.5t-145.5 -82q-66 0 -106.5 39.5t-45.5 103.5l-2 15q-97 -158 -221 -158q-35 0 -66.5 13t-59 40.5t-44 78.5t-16.5 120q0 104 27 209.5 t74.5 192t119.5 140.5t154 54q58 0 95 -41t52 -107l23 115h129l-121 -569q-6 -30 -6 -47q0 -54 14 -75.5t47 -21.5q23 0 54 36t61 99.5t50.5 169t20.5 226.5q0 208 -93 320t-247 112q-158 0 -298 -117t-221 -301t-81 -379q0 -237 109 -377.5t293 -140.5q145 0 280 115 l35 -53q-154 -129 -323 -129q-213 0 -340 157.5t-127 425.5zM428 442q0 -161 98 -161q32 0 60.5 13.5t53.5 41t40.5 49.5t38.5 59l72 332q-11 60 -37.5 101t-73.5 41q-58 0 -107.5 -48t-80 -121t-47.5 -154t-17 -153z" />
<glyph unicode="A" horiz-adv-x="745" d="M14 0l269 1366h178l270 -1366h-160l-53 313h-293l-53 -313h-158zM246 451h254l-127 731z" />
<glyph unicode="B" horiz-adv-x="825" d="M129 0v1366h295q142 0 218.5 -94t76.5 -254q0 -250 -178 -313q87 -15 141.5 -112t54.5 -224q0 -172 -74.5 -270.5t-226.5 -98.5h-307zM283 137h118q177 0 177 248q0 105 -44.5 175.5t-132.5 70.5h-118v-494zM283 768h110q166 0 166 229q0 232 -166 232h-110v-461z" />
<glyph unicode="C" horiz-adv-x="798" d="M88 682q0 153 20 278.5t61.5 223t111.5 151.5t163 54q62 0 111 -22t82 -63t53 -82.5t37 -95.5l-127 -49q-27 88 -61.5 130t-94.5 42q-52 0 -90.5 -42.5t-61 -121t-33.5 -178.5t-11 -225t11 -225t33.5 -178.5t61 -121t90.5 -42.5q67 0 103 54t57 153l129 -48 q-71 -299 -289 -299q-93 0 -163 54t-111.5 151.5t-61.5 223t-20 278.5z" />
<glyph unicode="D" horiz-adv-x="874" d="M129 0v1366h258q104 0 182.5 -51t125.5 -144.5t70 -215.5t23 -273q0 -153 -22.5 -275t-69.5 -214.5t-125 -142.5t-182 -50h-260zM283 137h106q123 0 180.5 144.5t57.5 400.5q0 257 -57.5 402t-180.5 145h-106v-1092z" />
<glyph unicode="E" horiz-adv-x="720" d="M129 0v1366h508v-137h-354v-461h340v-137h-340v-494h354v-137h-508z" />
<glyph unicode="F" horiz-adv-x="718" d="M129 0v1366h508v-137h-354v-461h340v-137h-340v-631h-154z" />
<glyph unicode="G" horiz-adv-x="841" d="M88 682q0 215 36.5 370.5t117.5 246t202 90.5q112 0 181 -72.5t102 -190.5l-127 -49q-26 86 -60.5 129t-95.5 43q-99 0 -147.5 -150t-48.5 -417q0 -266 48.5 -416.5t147.5 -150.5t148 84v358h-182v137h321v-555q-105 -164 -287 -164q-121 0 -202 91t-117.5 246.5 t-36.5 369.5z" />
<glyph unicode="H" horiz-adv-x="892" d="M129 0v1366h154v-594h327v594h154v-1366h-154v633h-327v-633h-154z" />
<glyph unicode="I" horiz-adv-x="411" d="M129 0v1366h154v-1366h-154z" />
<glyph unicode="J" horiz-adv-x="657" d="M14 70l60 123q56 -78 143 -78q160 0 160 182v1069h153v-1075q0 -160 -80 -238t-219 -78q-131 0 -217 95z" />
<glyph unicode="K" horiz-adv-x="856" d="M129 0v1366h154v-711l350 711h174l-346 -649l373 -717h-179l-280 592l-92 -176v-416h-154z" />
<glyph unicode="L" horiz-adv-x="681" d="M129 0v1366h154v-1229h354v-137h-508z" />
<glyph unicode="M" horiz-adv-x="1142" d="M129 0v1366h209l233 -963l238 963h205v-1366h-152v1071l-260 -1071h-61l-258 1071v-1071h-154z" />
<glyph unicode="N" horiz-adv-x="892" d="M129 0v1366h154l327 -975v975h154v-1366h-148l-333 995v-995h-154z" />
<glyph unicode="O" horiz-adv-x="888" d="M88 682q0 151 19.5 275.5t60.5 223t111 153.5t165 55t165 -55t111.5 -153.5t61 -223t19.5 -275.5t-19.5 -275.5t-61 -223t-111.5 -153.5t-165 -55t-165 55t-111 153.5t-60.5 223t-19.5 275.5zM248 682q0 -120 10.5 -218.5t32.5 -178.5t61 -125t92 -45t92 45t61.5 125 t33 179t10.5 218q0 121 -10.5 220t-33 178.5t-61.5 124t-92 44.5t-92 -44t-61 -124.5t-32.5 -179t-10.5 -219.5z" />
<glyph unicode="P" horiz-adv-x="792" d="M129 0v1366h281q82 0 145.5 -33t102 -90t58 -129.5t19.5 -155.5q0 -84 -19.5 -156.5t-58 -129t-102 -89t-145.5 -32.5h-127v-551h-154zM283 688h112q88 0 134 73.5t46 196.5t-46 197t-134 74h-112v-541z" />
<glyph unicode="Q" horiz-adv-x="888" d="M88 682q0 151 19.5 275.5t60.5 223t111 153.5t165 55t165 -55t111.5 -153.5t61 -223t19.5 -275.5q0 -442 -154 -616l35 -93l-115 -45l-24 66q-49 -19 -99 -19q-95 0 -165 55t-111 153.5t-60.5 223t-19.5 275.5zM248 682q0 -120 10.5 -218.5t32.5 -178.5t61 -125t92 -45 q30 0 48 10l-117 303l117 45l90 -235q59 143 59 444q0 121 -10.5 220t-33 178.5t-61.5 124t-92 44.5t-92 -44t-61 -124.5t-32.5 -179t-10.5 -219.5z" />
<glyph unicode="R" horiz-adv-x="837" d="M129 0v1366h285q143 0 232 -109t89 -294q0 -86 -17 -155.5t-46 -113t-60 -70t-65 -40.5l201 -584h-168l-177 551h-120v-551h-154zM283 688h112q88 0 134 73.5t46 196.5t-46 197t-134 74h-112v-541z" />
<glyph unicode="S" horiz-adv-x="724" d="M41 100l78 123q36 -50 93 -79t116 -29q75 0 125.5 58.5t50.5 152.5q0 63 -23.5 117t-61 95t-83 80.5t-91 82t-83 90.5t-61 115t-23.5 147q0 145 88.5 240.5t224.5 95.5q149 0 246 -97l-68 -118q-69 75 -174 75q-67 0 -113 -52.5t-46 -137.5q0 -54 23.5 -102.5t60.5 -88 t82 -79t90.5 -84.5t82.5 -96t60.5 -122t23.5 -153q0 -157 -89.5 -258t-235.5 -101q-177 0 -293 125z" />
<glyph unicode="T" horiz-adv-x="661" d="M37 1229v137h588v-137h-217v-1229h-156v1229h-215z" />
<glyph unicode="U" horiz-adv-x="894" d="M129 352v1014h154v-1020q0 -233 163 -233q166 0 166 233v1020h154v-1014q0 -189 -87.5 -283t-232.5 -94q-143 0 -230 94t-87 283z" />
<glyph unicode="V" horiz-adv-x="745" d="M14 1366h158l201 -1161l198 1161h160l-270 -1366h-178z" />
<glyph unicode="W" horiz-adv-x="1122" d="M37 1366h160l145 -1087l154 1087h131l155 -1087l144 1087h159l-217 -1366h-163l-144 1055l-143 -1055h-162z" />
<glyph unicode="X" horiz-adv-x="753" d="M8 0l281 694l-266 672h172l182 -528l182 528h172l-266 -670l283 -696h-173l-198 551l-199 -551h-170z" />
<glyph unicode="Y" horiz-adv-x="761" d="M-2 1366h166l217 -629l219 629h164l-305 -786v-580h-156v580z" />
<glyph unicode="Z" horiz-adv-x="696" d="M68 0v135l376 1094h-376v137h546v-129l-381 -1100h396v-137h-561z" />
<glyph unicode="[" horiz-adv-x="372" d="M72 -389v1778h264v-105h-154v-1569h154v-104h-264z" />
<glyph unicode="\" horiz-adv-x="409" d="M2 1407h109l301 -1448h-109z" />
<glyph unicode="]" horiz-adv-x="372" d="M35 -285h155v1569h-155v105h266v-1778h-266v104z" />
<glyph unicode="^" horiz-adv-x="675" d="M39 682l246 684h106l246 -684h-113l-186 563l-186 -563h-113z" />
<glyph unicode="_" horiz-adv-x="571" d="M-6 -82h584v-104h-584v104z" />
<glyph unicode="`" horiz-adv-x="299" d="M0 1434h139l160 -295h-94z" />
<glyph unicode="a" horiz-adv-x="768" d="M68 305q0 147 69.5 236.5t184.5 89.5q56 0 108 -30t84 -93v170q0 107 -35.5 161t-118.5 54q-103 0 -194 -105l-60 101q58 64 131 94.5t146 30.5q137 0 203.5 -76t66.5 -233v-705h-139v104q-32 -65 -84 -97t-108 -32q-115 0 -184.5 91t-69.5 239zM211 303q0 -97 38 -161 t111 -64q110 0 154 123v200q-45 127 -154 127q-73 0 -111 -64t-38 -161z" />
<glyph unicode="b" horiz-adv-x="786" d="M115 0v1366h139v-514q29 80 80 121t106 41q134 0 202.5 -142.5t68.5 -377.5q0 -155 -28.5 -269.5t-90.5 -182t-152 -67.5q-52 0 -103 42.5t-83 115.5v-133h-139zM254 264q19 -67 62.5 -115.5t89.5 -48.5q157 0 157 394q0 395 -157 395q-46 0 -89.5 -50t-62.5 -118v-457z " />
<glyph unicode="c" horiz-adv-x="649" d="M78 496q0 229 84.5 373.5t238.5 144.5q120 0 203 -90l-57 -107q-58 72 -127 72q-68 0 -114 -57.5t-64.5 -142.5t-18.5 -193q0 -79 11 -148t33.5 -125.5t61.5 -89.5t91 -33q71 0 127 72l57 -106q-75 -91 -203 -91q-154 0 -238.5 146t-84.5 375z" />
<glyph unicode="d" horiz-adv-x="786" d="M78 494q0 154 27.5 268t89 183t151.5 69q55 0 106 -41t80 -121v514h140v-1366h-140v133q-32 -73 -83 -115.5t-103 -42.5q-134 0 -201 140.5t-67 378.5zM223 494q0 -394 158 -394q46 0 89.5 49t61.5 115v459q-18 67 -61.5 116.5t-89.5 49.5q-158 0 -158 -395z" />
<glyph unicode="e" horiz-adv-x="763" d="M78 496q0 148 32 262t104 185t177 71q65 0 117 -26.5t87 -73t58 -112.5t33 -141.5t10 -162.5v-49h-479q2 -164 56 -260.5t157 -96.5q45 0 88.5 31.5t75.5 89.5l82 -76q-47 -76 -113 -119t-143 -43q-168 0 -255 143t-87 378zM217 553h340q0 64 -7.5 120.5t-25.5 109 t-53 83.5t-84 31t-84 -33t-52.5 -87.5t-25.5 -109.5t-8 -114z" />
<glyph unicode="f" horiz-adv-x="458" d="M47 866v123h96v164q0 109 55 171t156 62q90 0 142 -55l-50 -110q-30 41 -71 41q-90 0 -90 -109v-164h133v-123h-133v-866h-142v866h-96z" />
<glyph unicode="g" horiz-adv-x="786" d="M78 500q0 235 67 374.5t201 139.5q55 0 106 -41t80 -121v137h140v-1028q0 -189 -84 -275.5t-223 -86.5q-164 0 -263 102l58 115q38 -41 89 -66.5t103 -25.5q85 0 132.5 58.5t47.5 178.5v189q-32 -74 -83 -118t-103 -44q-91 0 -152 66t-88.5 178.5t-27.5 267.5zM223 500 q0 -387 158 -387q46 0 89.5 50t61.5 118v442q-18 67 -61.5 116.5t-89.5 49.5q-158 0 -158 -389z" />
<glyph unicode="h" d="M115 0v1366h139v-516q34 69 95 116.5t126 47.5q97 0 140.5 -52.5t43.5 -162.5v-799h-139v762q0 127 -94 127q-54 0 -100.5 -47.5t-71.5 -114.5v-727h-139z" />
<glyph unicode="i" horiz-adv-x="368" d="M88 1231q0 39 28.5 67.5t67.5 28.5q40 0 69.5 -28.5t29.5 -67.5t-29.5 -67.5t-69.5 -28.5q-39 0 -67.5 28.5t-28.5 67.5zM115 0v989h139v-989h-139z" />
<glyph unicode="j" horiz-adv-x="368" d="M-66 -338l56 100q18 -38 57 -38q33 0 50.5 29.5t17.5 101.5v1134h139v-1134q0 -135 -49 -195.5t-150 -60.5q-81 0 -121 63zM88 1231q0 39 28.5 67.5t67.5 28.5q40 0 69.5 -28.5t29.5 -67.5t-29.5 -67.5t-69.5 -28.5q-39 0 -67.5 28.5t-28.5 67.5z" />
<glyph unicode="k" horiz-adv-x="739" d="M115 0v1366h139v-924l303 547h152l-250 -442l250 -547h-154l-186 449l-115 -197v-252h-139z" />
<glyph unicode="l" horiz-adv-x="368" d="M115 0v1366h139v-1366h-139z" />
<glyph unicode="m" horiz-adv-x="1179" d="M115 0v989h139v-139q33 67 94.5 115.5t126.5 48.5q79 0 126.5 -43.5t53.5 -124.5q32 69 95 118.5t131 49.5q182 0 182 -215v-799h-139v760q0 129 -95 129q-52 0 -98 -48t-72 -114v-727h-139v760q0 129 -94 129q-53 0 -99.5 -48t-72.5 -114v-727h-139z" />
<glyph unicode="n" d="M115 0v989h139v-139q34 69 95 116.5t126 47.5q96 0 140 -54t44 -161v-799h-139v760q0 129 -94 129q-54 0 -100.5 -47.5t-71.5 -114.5v-727h-139z" />
<glyph unicode="o" horiz-adv-x="782" d="M78 496q0 106 17.5 196.5t53.5 164t98 115.5t144 42t144 -42t98.5 -115.5t54 -164t17.5 -196.5q0 -84 -10.5 -159t-34.5 -142t-60 -115t-89.5 -76.5t-119.5 -28.5q-82 0 -144 42.5t-98 116.5t-53.5 165t-17.5 197zM223 496q0 -80 8 -146.5t26 -125t52 -91.5t82 -33 q168 0 168 396q0 393 -168 393q-48 0 -82 -32.5t-52 -91t-26 -124t-8 -145.5z" />
<glyph unicode="p" horiz-adv-x="786" d="M115 -377v1366h139v-133q32 73 83 115.5t103 42.5q91 0 152.5 -67.5t90 -181.5t28.5 -269q0 -235 -68.5 -378t-202.5 -143q-55 0 -106 41t-80 121v-514h-139zM254 266q20 -67 63 -116.5t89 -49.5q157 0 157 396q0 393 -157 393q-46 0 -89.5 -48t-62.5 -116v-459z" />
<glyph unicode="q" horiz-adv-x="786" d="M78 496q0 238 67 378t201 140q52 0 103 -42.5t83 -115.5v133h140v-1366h-140v514q-29 -80 -80 -121t-106 -41q-90 0 -151.5 69t-89 183.5t-27.5 268.5zM223 496q0 -396 158 -396q46 0 89.5 49.5t61.5 116.5v459q-18 67 -61.5 115.5t-89.5 48.5q-158 0 -158 -393z" />
<glyph unicode="r" horiz-adv-x="516" d="M115 0v989h139v-158q37 83 95.5 131t135.5 48v-144q-24 4 -39 4q-59 0 -109.5 -47t-82.5 -118v-705h-139z" />
<glyph unicode="s" horiz-adv-x="632" d="M43 100l68 97q79 -107 190 -107q62 0 103.5 40.5t41.5 107.5q0 45 -20.5 82t-53.5 64.5t-72.5 54t-79 56.5t-72.5 65.5t-53.5 89t-20.5 118.5q0 106 72.5 176t189.5 70q141 0 235 -111l-65 -94q-63 90 -168 90q-59 0 -95 -36.5t-36 -90.5q0 -42 20.5 -77.5t53.5 -62.5 t72.5 -53.5t79.5 -57.5t73 -68t53.5 -91.5t20.5 -121.5q0 -118 -77 -191.5t-192 -73.5q-174 0 -268 125z" />
<glyph unicode="t" horiz-adv-x="477" d="M43 866v123h100v271h142v-271h133v-123h-133v-657q0 -58 13.5 -83.5t47.5 -25.5q42 0 66 35l45 -104q-56 -56 -138 -56q-92 0 -134 52t-42 161v678h-100z" />
<glyph unicode="u" d="M115 190v799h139v-762q0 -127 94 -127q54 0 100.5 46t71.5 112v731h139v-989h-139v135q-34 -70 -93 -115t-128 -45q-97 0 -140.5 52.5t-43.5 162.5z" />
<glyph unicode="v" horiz-adv-x="667" d="M18 989h150l164 -817l168 817h149l-239 -989h-154z" />
<glyph unicode="w" horiz-adv-x="1107" d="M27 989h147l148 -792l157 792h144l161 -792l150 792h147l-215 -989h-145l-166 797l-168 -797h-145z" />
<glyph unicode="x" horiz-adv-x="667" d="M25 0l223 500l-211 489h149l148 -379l147 379h148l-211 -489l223 -500h-149l-158 389l-160 -389h-149z" />
<glyph unicode="y" horiz-adv-x="667" d="M18 989h150l164 -809l168 809h149l-295 -1204q-28 -105 -75 -145.5t-125 -40.5q-54 0 -86 14l22 123q21 -12 47 -12q36 0 55 20t33 70l37 155z" />
<glyph unicode="z" horiz-adv-x="620" d="M70 0v111l309 755h-309v123h471v-106l-308 -760h316v-123h-479z" />
<glyph unicode="{" horiz-adv-x="413" d="M12 453v94q51 0 79 41t28 102v484q0 95 59.5 155t138.5 60h62v-105h-62q-37 0 -62.5 -30.5t-25.5 -79.5v-494q0 -141 -92 -180q92 -39 92 -181v-495q0 -47 25.5 -78t62.5 -31h62v-104h-62q-79 0 -138.5 60t-59.5 153v485q0 61 -28 102.5t-79 41.5z" />
<glyph unicode="|" horiz-adv-x="362" d="M129 -41v1448h104v-1448h-104z" />
<glyph unicode="}" horiz-adv-x="413" d="M35 -285h61q37 0 62.5 31t25.5 78v495q0 142 92 181q-92 39 -92 180v494q0 49 -25.5 79.5t-62.5 30.5h-61v105h61q79 0 139 -60.5t60 -154.5v-484q0 -61 27.5 -102t78.5 -41v-94q-51 0 -78.5 -41.5t-27.5 -102.5v-485q0 -93 -60 -153t-139 -60h-61v104z" />
<glyph unicode="~" horiz-adv-x="806" d="M55 879q3 51 6.5 91t11.5 92.5t18 92.5t27 81t39 67.5t53 43.5t69 17q48 0 81.5 -29.5t49 -73t28.5 -95t21.5 -95t26.5 -73t44 -29.5q53 0 74.5 84t40.5 313l107 -10q-4 -61 -8.5 -107t-14 -107.5t-25 -105t-38.5 -84t-57.5 -61.5t-78.5 -21q-48 0 -81.5 29t-49 73 t-28.5 95t-21.5 95t-26.5 73t-44 29q-53 0 -74.5 -85.5t-40.5 -312.5z" />
<glyph unicode="&#xa1;" horiz-adv-x="464" d="M127 903q0 43 31 75t75 32q43 0 75 -32t32 -75q0 -42 -32 -73t-75 -31q-44 0 -75 30.5t-31 73.5zM145 -377l29 991h117l31 -991h-177z" />
<glyph unicode="&#xa2;" horiz-adv-x="649" d="M78 496q0 210 72 350.5t206 163.5v147h111v-151q74 -16 137 -82l-57 -107q-40 49 -80 64v-775q41 15 80 66l57 -106q-55 -67 -137 -84v-187h-111v185q-90 14 -153.5 86t-94 182t-30.5 248zM223 496q0 -139 32.5 -243.5t100.5 -137.5v759q-68 -35 -100.5 -137.5 t-32.5 -240.5z" />
<glyph unicode="&#xa3;" horiz-adv-x="778" d="M61 555v102h138q-26 50 -36.5 72.5t-29 69.5t-26 95t-7.5 103q0 160 90.5 274.5t229.5 114.5q107 0 181.5 -61t100.5 -170l-122 -59q-23 76 -58 117.5t-96 41.5q-64 0 -113 -71t-49 -191q0 -57 11.5 -110t22.5 -80t36 -78t33 -68h155v-102h-121q11 -57 11 -100 q0 -78 -38 -162.5t-95 -134.5q41 20 77 20q47 0 107.5 -31.5t95.5 -31.5q41 0 78 20t57 49l56 -121q-27 -36 -85 -62t-118 -26q-44 0 -80 13t-56 29t-47.5 29t-56.5 13q-67 0 -162 -73l-55 112q82 55 131 144.5t49 181.5q0 61 -24 131h-185z" />
<glyph unicode="&#xa4;" horiz-adv-x="1069" d="M74 281l114 114q-102 127 -102 287q0 163 102 287l-114 116l57 58l117 -115q120 102 287 102q162 0 286 -102l115 115l59 -58l-114 -116q102 -124 102 -287q0 -160 -102 -287l114 -114l-59 -60l-115 117q-124 -105 -286 -105q-163 0 -287 105l-117 -117zM184 682 q0 -145 103 -247.5t248 -102.5t247.5 102.5t102.5 247.5q0 146 -102.5 248t-247.5 102t-248 -102t-103 -248z" />
<glyph unicode="&#xa5;" horiz-adv-x="761" d="M-2 1366h166l217 -629l219 629h164l-266 -686h217v-100h-256v-226h256v-102h-256v-252h-156v252h-258v102h258v226h-258v100h219z" />
<glyph unicode="&#xa6;" horiz-adv-x="362" d="M129 -41v647h104v-647h-104zM129 760v647h104v-647h-104z" />
<glyph unicode="&#xa7;" horiz-adv-x="634" d="M43 -41l68 94q32 -42 81.5 -75t108.5 -33q63 0 104 44.5t41 106.5q0 47 -20.5 86t-53.5 67.5t-72.5 56t-79 58t-72.5 65.5t-53.5 87.5t-20.5 116.5q0 77 45 141t127 82q-95 69 -133.5 138.5t-38.5 152.5q0 106 73 172.5t175 66.5q83 0 141 -27.5t108 -84.5l-67 -86 q-42 52 -82 72t-88 20q-56 0 -91.5 -37.5t-35.5 -95.5q0 -44 20.5 -81t53.5 -64.5t72.5 -55t79.5 -59t73 -67.5t53.5 -89.5t20.5 -118.5q0 -73 -37.5 -136.5t-110.5 -98.5q78 -61 113 -127.5t35 -151.5q0 -109 -76.5 -186.5t-192.5 -77.5q-88 0 -151 30.5t-117 94.5z M201 651q0 -64 33 -115.5t112 -107.5q107 55 107 162q0 41 -10.5 76t-31 61.5t-36 41.5t-37.5 32q-137 -24 -137 -150z" />
<glyph unicode="&#xa8;" horiz-adv-x="540" d="M37 1235q0 37 26.5 63.5t61.5 26.5q37 0 63.5 -26.5t26.5 -63.5t-26.5 -62.5t-63.5 -25.5q-36 0 -62 26t-26 62zM326 1235q0 37 26.5 63.5t61.5 26.5q37 0 63.5 -26.5t26.5 -63.5t-26.5 -62.5t-63.5 -25.5q-36 0 -62 26t-26 62z" />
<glyph unicode="&#xa9;" horiz-adv-x="1593" d="M90 684q0 191 95 354t258 258t354 95q143 0 274 -56t225.5 -151t150.5 -226t56 -274t-56 -274t-150.5 -226t-225.5 -151t-274 -56q-191 0 -354 95t-258 258t-95 354zM152 684q0 -174 87 -322.5t235.5 -235.5t322.5 -87t322.5 87t235.5 235.5t87 322.5t-87 322.5 t-235.5 235.5t-322.5 87t-322.5 -87t-235.5 -235.5t-87 -322.5zM375 684q0 189 124 313.5t304 124.5q183 0 297 -133l-51 -49q-40 54 -107 85.5t-139 31.5q-146 0 -250 -104t-104 -269q0 -158 105 -264.5t249 -106.5q73 0 139.5 32.5t106.5 86.5l51 -49q-116 -135 -297 -135 q-179 0 -303.5 126t-124.5 310z" />
<glyph unicode="&#xaa;" horiz-adv-x="571" d="M55 864q0 97 48.5 154t127.5 57q93 0 140 -78v107q0 133 -109 133q-76 0 -137 -74l-45 76q82 88 203 88q100 0 148 -56.5t48 -174.5v-428h-108v67q-47 -84 -140 -84q-79 0 -127.5 58t-48.5 155zM164 866q0 -61 26 -100t74 -39q76 0 107 78v123q-31 78 -107 78 q-47 0 -73.5 -40t-26.5 -100z" />
<glyph unicode="&#xab;" horiz-adv-x="665" d="M61 498l185 362h119l-185 -362l185 -369h-119zM301 498l184 362h119l-184 -362l184 -369h-119z" />
<glyph unicode="&#xac;" d="M59 834v100h656v-500h-105v400h-551z" />
<glyph unicode="&#xad;" horiz-adv-x="481" d="M61 434v123h359v-123h-359z" />
<glyph unicode="&#xae;" horiz-adv-x="1011" d="M72 952q0 181 127 307.5t307 126.5q119 0 219 -57.5t157.5 -157.5t57.5 -219q0 -180 -126.5 -307t-307.5 -127q-180 0 -307 127t-127 307zM129 952q0 -156 110.5 -266.5t266.5 -110.5t266.5 110.5t110.5 266.5q0 158 -110 267.5t-267 109.5t-267 -109.5t-110 -267.5z M340 702v498h203q65 0 111 -42t46 -109q0 -72 -46 -110t-81 -38l134 -199h-82l-129 197h-90v-197h-66zM406 958h137q34 0 62 27t28 64q0 40 -28 67t-62 27h-137v-185z" />
<glyph unicode="&#xaf;" horiz-adv-x="507" d="M0 1210v93h508v-93h-508z" />
<glyph unicode="&#xb0;" horiz-adv-x="589" d="M49 1139q0 103 71.5 175t172.5 72q103 0 175.5 -72t72.5 -175q0 -101 -72.5 -172.5t-175.5 -71.5q-101 0 -172.5 71.5t-71.5 172.5zM141 1139q0 -63 44.5 -107.5t107.5 -44.5t109.5 44.5t46.5 107.5t-46.5 109t-109.5 46t-107.5 -46t-44.5 -109z" />
<glyph unicode="&#xb1;" d="M59 92v101h656v-101h-656zM59 641v100h273v303h110v-303h273v-100h-273v-317h-110v317h-273z" />
<glyph unicode="&#xb2;" horiz-adv-x="540" d="M49 1561q81 133 223 133q98 0 159 -58t61 -157q0 -86 -56.5 -184t-232.5 -339h291v-94h-431v86q201 265 257.5 358.5t56.5 170.5q0 55 -31 88.5t-78 33.5q-91 0 -145 -104z" />
<glyph unicode="&#xb3;" horiz-adv-x="540" d="M41 983l78 66q56 -107 145 -107q119 0 119 150q0 78 -37 111.5t-90 33.5q-43 0 -53 -2v94q10 -2 49 -2q56 0 89.5 34.5t33.5 100.5q0 68 -30 102.5t-81 34.5q-88 0 -137 -96l-78 60q35 62 93 96.5t126 34.5q98 0 157.5 -55.5t59.5 -163.5q0 -68 -37 -122t-94 -67 q58 -11 101 -67.5t43 -133.5q0 -107 -61 -172t-169 -65q-78 0 -136 37t-91 98z" />
<glyph unicode="&#xb4;" horiz-adv-x="299" d="M0 1139l162 295h137l-205 -295h-94z" />
<glyph unicode="&#xb6;" horiz-adv-x="919" d="M55 1014q0 146 103.5 249t249.5 103h360v-1571h-88v1483h-184v-1483h-88v867q-146 0 -249.5 103t-103.5 249z" />
<glyph unicode="&#xb7;" horiz-adv-x="464" d="M125 502q0 41 31.5 72.5t74.5 31.5q44 0 75.5 -31t31.5 -73q0 -43 -31.5 -75t-75.5 -32q-43 0 -74.5 32t-31.5 75z" />
<glyph unicode="&#xb8;" horiz-adv-x="337" d="M0 -330l35 72q61 -55 121 -55q39 0 67.5 24.5t28.5 63.5q0 32 -15.5 50.5t-43.5 18.5q-30 0 -58 -28l-63 34l63 173h88l-55 -138q27 21 59 21q47 0 79 -37t32 -96q0 -71 -51.5 -116.5t-128.5 -45.5q-85 0 -158 59z" />
<glyph unicode="&#xb9;" horiz-adv-x="440" d="M31 1473l202 208h101v-819h-115v672l-123 -129z" />
<glyph unicode="&#xba;" horiz-adv-x="591" d="M63 989q0 143 60 240.5t172 97.5q78 0 131.5 -48.5t76.5 -122.5t23 -167t-23 -167t-76.5 -122.5t-131.5 -48.5q-112 0 -172 97.5t-60 240.5zM178 989q0 -246 117 -246q119 0 119 246q0 244 -119 244q-117 0 -117 -244z" />
<glyph unicode="&#xbb;" horiz-adv-x="665" d="M61 129l185 369l-185 362h119l185 -362l-185 -369h-119zM301 129l184 369l-184 362h119l184 -362l-184 -369h-119z" />
<glyph unicode="&#xbc;" horiz-adv-x="1179" d="M31 1157l202 209h101v-819h-115v672l-123 -129zM262 0l561 1366h84l-561 -1366h-84zM672 209v94l262 516h139v-516h74v-94h-74v-209h-112v209h-289zM770 303h191v385z" />
<glyph unicode="&#xbd;" horiz-adv-x="1245" d="M31 1157l202 209h101v-819h-115v672l-123 -129zM262 0l561 1366h84l-561 -1366h-84zM754 698q81 133 223 133q98 0 158.5 -58t60.5 -157q0 -86 -56 -183t-233 -339h291v-94h-430v86q201 264 257 357.5t56 170.5q0 55 -31 89t-77 34q-92 0 -146 -104z" />
<glyph unicode="&#xbe;" horiz-adv-x="1253" d="M41 668l78 65q56 -106 145 -106q119 0 119 149q0 79 -37 112.5t-90 33.5q-43 0 -53 -2v94q10 -2 49 -2q56 0 89.5 34.5t33.5 100.5q0 68 -30 102.5t-81 34.5q-88 0 -137 -96l-78 59q35 62 93 96.5t126 34.5q98 0 157.5 -55.5t59.5 -163.5q0 -68 -37 -121.5t-94 -66.5 q58 -11 101 -67.5t43 -133.5q0 -107 -61 -172.5t-169 -65.5q-78 0 -136 37.5t-91 98.5zM336 0l561 1366h84l-561 -1366h-84zM745 209v94l263 516h139v-516h74v-94h-74v-209h-113v209h-289zM844 303h190v385z" />
<glyph unicode="&#xbf;" horiz-adv-x="555" d="M49 -115q0 75 24.5 141t59 114t69 93t59 99t24.5 112q0 62 -39 111l119 55q55 -70 55 -172q0 -67 -22.5 -125t-54 -101.5t-63.5 -86t-54.5 -97.5t-22.5 -118q0 -69 42.5 -123.5t110.5 -54.5q77 0 138 69l69 -102q-92 -102 -235 -102q-121 0 -200 83t-79 205zM207 903 q0 43 31.5 75t74.5 32t75 -32t32 -75q0 -42 -32 -73t-75 -31t-74.5 30.5t-31.5 73.5z" />
<glyph unicode="&#xc0;" horiz-adv-x="745" d="M14 0l269 1366h178l270 -1366h-160l-53 313h-293l-53 -313h-158zM178 1786h139l160 -295h-94zM246 451h254l-127 731z" />
<glyph unicode="&#xc1;" horiz-adv-x="745" d="M14 0l269 1366h178l270 -1366h-160l-53 313h-293l-53 -313h-158zM246 451h254l-127 731zM270 1491l162 295h137l-204 -295h-95z" />
<glyph unicode="&#xc2;" horiz-adv-x="745" d="M14 0l269 1366h178l270 -1366h-160l-53 313h-293l-53 -313h-158zM168 1491l133 295h137l142 -295h-86l-123 215l-119 -215h-84zM246 451h254l-127 731z" />
<glyph unicode="&#xc3;" horiz-adv-x="745" d="M14 0l269 1366h178l270 -1366h-160l-53 313h-293l-53 -313h-158zM141 1499q0 123 37.5 199t112.5 76q38 0 63.5 -30.5t35.5 -67t26.5 -67t38.5 -30.5q69 0 69 182h82q0 -121 -38 -197.5t-113 -76.5q-38 0 -63 30.5t-35 66.5t-26.5 66.5t-39.5 30.5q-32 0 -51 -45 t-19 -137h-80zM246 451h254l-127 731z" />
<glyph unicode="&#xc4;" horiz-adv-x="745" d="M14 0l269 1366h178l270 -1366h-160l-53 313h-293l-53 -313h-158zM139 1581q0 37 26.5 63.5t61.5 26.5q37 0 63.5 -26.5t26.5 -63.5t-26.5 -62.5t-63.5 -25.5q-36 0 -62 26t-26 62zM246 451h254l-127 731zM428 1581q0 37 26.5 63.5t61.5 26.5q37 0 63.5 -26.5t26.5 -63.5 t-26.5 -62.5t-63.5 -25.5q-36 0 -62 26t-26 62z" />
<glyph unicode="&#xc5;" horiz-adv-x="745" d="M14 0l269 1366h178l270 -1366h-160l-53 313h-293l-53 -313h-158zM205 1587q0 71 49.5 120.5t120.5 49.5q70 0 119 -49.5t49 -120.5t-49 -120.5t-119 -49.5q-71 0 -120.5 49.5t-49.5 120.5zM246 451h254l-127 731zM279 1587q0 -40 28 -68t68 -28t68 28t28 68t-28 68 t-68 28t-68 -28t-28 -68z" />
<glyph unicode="&#xc6;" horiz-adv-x="1134" d="M29 0l444 1366h574v-137h-353v-461h338v-137h-338v-494h353v-137h-506v313h-258l-97 -313h-157zM319 451h222v731z" />
<glyph unicode="&#xc7;" horiz-adv-x="798" d="M88 682q0 153 20 278.5t61.5 223t111.5 151.5t163 54q62 0 111 -22t82 -63t53 -82.5t37 -95.5l-127 -49q-27 88 -61.5 130t-94.5 42q-52 0 -90.5 -42.5t-61 -121t-33.5 -178.5t-11 -225t11 -225t33.5 -178.5t61 -121t90.5 -42.5q67 0 103 54t57 153l129 -48 q-65 -275 -256 -297l-33 -83q26 20 60 20q47 0 78.5 -37t31.5 -96q0 -71 -51.5 -116.5t-128.5 -45.5q-85 0 -158 59l35 72q61 -55 121 -55q39 0 67.5 24.5t28.5 63.5q0 32 -15.5 51t-43.5 19t-57 -29l-64 35l45 121q-80 14 -139.5 73t-95.5 154t-53 213.5t-17 261.5z" />
<glyph unicode="&#xc8;" horiz-adv-x="720" d="M129 0v1366h508v-137h-354v-461h340v-137h-340v-494h354v-137h-508zM195 1786h139l160 -295h-95z" />
<glyph unicode="&#xc9;" horiz-adv-x="720" d="M129 0v1366h508v-137h-354v-461h340v-137h-340v-494h354v-137h-508zM285 1491l161 295h138l-205 -295h-94z" />
<glyph unicode="&#xca;" horiz-adv-x="720" d="M129 0v1366h508v-137h-354v-461h340v-137h-340v-494h354v-137h-508zM182 1491l133 295h138l141 -295h-86l-123 215l-119 -215h-84z" />
<glyph unicode="&#xcb;" horiz-adv-x="720" d="M129 0v1366h508v-137h-354v-461h340v-137h-340v-494h354v-137h-508zM152 1581q0 37 26.5 63.5t61.5 26.5q37 0 63.5 -26.5t26.5 -63.5t-26.5 -62.5t-63.5 -25.5q-36 0 -62 26t-26 62zM440 1581q0 37 26.5 63.5t61.5 26.5q37 0 63.5 -26.5t26.5 -63.5t-26.5 -62.5 t-63.5 -25.5q-36 0 -62 26t-26 62z" />
<glyph unicode="&#xcc;" horiz-adv-x="411" d="M12 1786h140l159 -295h-94zM129 0v1366h154v-1366h-154z" />
<glyph unicode="&#xcd;" horiz-adv-x="411" d="M106 1491l162 295h138l-205 -295h-95zM129 0v1366h154v-1366h-154z" />
<glyph unicode="&#xce;" horiz-adv-x="411" d="M2 1491l133 295h137l142 -295h-86l-123 215l-119 -215h-84zM129 0v1366h154v-1366h-154z" />
<glyph unicode="&#xcf;" horiz-adv-x="411" d="M-23 1581q0 37 26.5 63.5t62.5 26.5q37 0 63.5 -26.5t26.5 -63.5t-26.5 -62.5t-63.5 -25.5q-36 0 -62.5 26t-26.5 62zM129 0v1366h154v-1366h-154zM266 1581q0 37 26.5 63.5t61.5 26.5q37 0 63.5 -26.5t26.5 -63.5t-26.5 -62.5t-63.5 -25.5q-36 0 -62 26t-26 62z" />
<glyph unicode="&#xd0;" horiz-adv-x="913" d="M43 618v115h125v633h258q104 0 182.5 -51t125.5 -144.5t70 -215.5t23 -273q0 -153 -22.5 -275t-69.5 -214.5t-125 -142.5t-182 -50h-260v618h-125zM322 137h106q123 0 180.5 144.5t57.5 400.5q0 257 -57.5 402t-180.5 145h-106v-496h170v-115h-170v-481z" />
<glyph unicode="&#xd1;" horiz-adv-x="892" d="M129 0v1366h154l327 -975v975h154v-1366h-148l-333 995v-995h-154zM209 1499q0 123 37.5 199t111.5 76q38 0 63.5 -30.5t35.5 -67t26.5 -67t38.5 -30.5q70 0 70 182h82q0 -121 -38.5 -197.5t-113.5 -76.5q-38 0 -63 30.5t-35 66.5t-26.5 66.5t-39.5 30.5q-69 0 -69 -182 h-80z" />
<glyph unicode="&#xd2;" horiz-adv-x="888" d="M88 682q0 151 19.5 275.5t60.5 223t111 153.5t165 55t165 -55t111.5 -153.5t61 -223t19.5 -275.5t-19.5 -275.5t-61 -223t-111.5 -153.5t-165 -55t-165 55t-111 153.5t-60.5 223t-19.5 275.5zM248 682q0 -120 10.5 -218.5t32.5 -178.5t61 -125t92 -45t92 45t61.5 125 t33 179t10.5 218q0 121 -10.5 220t-33 178.5t-61.5 124t-92 44.5t-92 -44t-61 -124.5t-32.5 -179t-10.5 -219.5zM248 1786h139l160 -295h-94z" />
<glyph unicode="&#xd3;" horiz-adv-x="888" d="M88 682q0 151 19.5 275.5t60.5 223t111 153.5t165 55t165 -55t111.5 -153.5t61 -223t19.5 -275.5t-19.5 -275.5t-61 -223t-111.5 -153.5t-165 -55t-165 55t-111 153.5t-60.5 223t-19.5 275.5zM248 682q0 -120 10.5 -218.5t32.5 -178.5t61 -125t92 -45t92 45t61.5 125 t33 179t10.5 218q0 121 -10.5 220t-33 178.5t-61.5 124t-92 44.5t-92 -44t-61 -124.5t-32.5 -179t-10.5 -219.5zM342 1491l162 295h137l-205 -295h-94z" />
<glyph unicode="&#xd4;" horiz-adv-x="888" d="M88 682q0 151 19.5 275.5t60.5 223t111 153.5t165 55t165 -55t111.5 -153.5t61 -223t19.5 -275.5t-19.5 -275.5t-61 -223t-111.5 -153.5t-165 -55t-165 55t-111 153.5t-60.5 223t-19.5 275.5zM240 1491l133 295h137l141 -295h-86l-123 215l-118 -215h-84zM248 682 q0 -120 10.5 -218.5t32.5 -178.5t61 -125t92 -45t92 45t61.5 125t33 179t10.5 218q0 121 -10.5 220t-33 178.5t-61.5 124t-92 44.5t-92 -44t-61 -124.5t-32.5 -179t-10.5 -219.5z" />
<glyph unicode="&#xd5;" horiz-adv-x="888" d="M88 682q0 151 19.5 275.5t60.5 223t111 153.5t165 55t165 -55t111.5 -153.5t61 -223t19.5 -275.5t-19.5 -275.5t-61 -223t-111.5 -153.5t-165 -55t-165 55t-111 153.5t-60.5 223t-19.5 275.5zM213 1499q0 123 37.5 199t111.5 76q38 0 63.5 -30.5t35.5 -67t26.5 -67 t38.5 -30.5q70 0 70 182h82q0 -121 -38.5 -197.5t-113.5 -76.5q-38 0 -63 30.5t-35 66.5t-26.5 66.5t-39.5 30.5q-69 0 -69 -182h-80zM248 682q0 -120 10.5 -218.5t32.5 -178.5t61 -125t92 -45t92 45t61.5 125t33 179t10.5 218q0 121 -10.5 220t-33 178.5t-61.5 124 t-92 44.5t-92 -44t-61 -124.5t-32.5 -179t-10.5 -219.5z" />
<glyph unicode="&#xd6;" horiz-adv-x="888" d="M88 682q0 151 19.5 275.5t60.5 223t111 153.5t165 55t165 -55t111.5 -153.5t61 -223t19.5 -275.5t-19.5 -275.5t-61 -223t-111.5 -153.5t-165 -55t-165 55t-111 153.5t-60.5 223t-19.5 275.5zM211 1581q0 37 26.5 63.5t61.5 26.5q37 0 63.5 -26.5t26.5 -63.5t-26.5 -62.5 t-63.5 -25.5q-36 0 -62 26t-26 62zM248 682q0 -120 10.5 -218.5t32.5 -178.5t61 -125t92 -45t92 45t61.5 125t33 179t10.5 218q0 121 -10.5 220t-33 178.5t-61.5 124t-92 44.5t-92 -44t-61 -124.5t-32.5 -179t-10.5 -219.5zM500 1581q0 37 26.5 63.5t61.5 26.5 q37 0 63.5 -26.5t26.5 -63.5t-26.5 -62.5t-63.5 -25.5q-36 0 -62 26t-26 62z" />
<glyph unicode="&#xd7;" d="M96 465l221 219l-221 219l72 72l219 -219l219 219l72 -72l-219 -219l219 -219l-72 -72l-219 219l-219 -219z" />
<glyph unicode="&#xd8;" horiz-adv-x="888" d="M88 682q0 151 19.5 275.5t60.5 223t111 153.5t165 55q119 0 203 -93l29 70h104l-69 -166q90 -184 90 -518q0 -151 -19.5 -275.5t-61 -223t-111.5 -153.5t-165 -55q-117 0 -202 91l-27 -66h-106l67 164q-88 186 -88 518zM248 682q0 -174 20 -297l310 748q-50 116 -134 116 q-53 0 -92 -44t-61 -124.5t-32.5 -179t-10.5 -219.5zM309 229q49 -114 135 -114q53 0 92 45t61.5 125t33 179t10.5 218q0 174 -20 297z" />
<glyph unicode="&#xd9;" horiz-adv-x="894" d="M129 352v1014h154v-1020q0 -233 163 -233q166 0 166 233v1020h154v-1014q0 -189 -87.5 -283t-232.5 -94q-143 0 -230 94t-87 283zM252 1786h139l160 -295h-94z" />
<glyph unicode="&#xda;" horiz-adv-x="894" d="M129 352v1014h154v-1020q0 -233 163 -233q166 0 166 233v1020h154v-1014q0 -189 -87.5 -283t-232.5 -94q-143 0 -230 94t-87 283zM344 1491l162 295h137l-205 -295h-94z" />
<glyph unicode="&#xdb;" horiz-adv-x="894" d="M129 352v1014h154v-1020q0 -233 163 -233q166 0 166 233v1020h154v-1014q0 -189 -87.5 -283t-232.5 -94q-143 0 -230 94t-87 283zM242 1491l133 295h137l141 -295h-86l-123 215l-118 -215h-84z" />
<glyph unicode="&#xdc;" horiz-adv-x="894" d="M129 352v1014h154v-1020q0 -233 163 -233q166 0 166 233v1020h154v-1014q0 -189 -87.5 -283t-232.5 -94q-143 0 -230 94t-87 283zM213 1581q0 37 26.5 63.5t61.5 26.5q37 0 63.5 -26.5t26.5 -63.5t-26.5 -62.5t-63.5 -25.5q-36 0 -62 26t-26 62zM502 1581q0 37 26.5 63.5 t61.5 26.5q37 0 63.5 -26.5t26.5 -63.5t-26.5 -62.5t-63.5 -25.5q-36 0 -62 26t-26 62z" />
<glyph unicode="&#xdd;" horiz-adv-x="761" d="M-2 1366h166l217 -629l219 629h164l-305 -786v-580h-156v580zM285 1491l161 295h138l-205 -295h-94z" />
<glyph unicode="&#xde;" horiz-adv-x="792" d="M129 0v1366h154v-248h127q108 0 183 -57.5t108.5 -147.5t33.5 -204q0 -83 -19.5 -155t-58 -129t-102 -89.5t-145.5 -32.5h-127v-303h-154zM283 442h112q88 0 134 72t46 195q0 124 -46 198t-134 74h-112v-539z" />
<glyph unicode="&#xdf;" horiz-adv-x="925" d="M135 0v1063q0 141 84 232t221 91q127 0 212 -72.5t85 -180.5q0 -58 -21 -105t-50.5 -78t-59 -58t-50.5 -59.5t-21 -68.5q0 -42 19.5 -77t51.5 -61.5t70 -52t76 -56t70 -66.5t51.5 -90t19.5 -121q0 -110 -74.5 -187.5t-187.5 -77.5q-84 0 -145 31t-115 94l63 101 q24 -31 41.5 -50t55.5 -40t79 -21q54 0 96 41.5t42 106.5q0 45 -19.5 82.5t-50.5 65t-68.5 54t-74.5 56t-68 64t-50.5 85t-19.5 111.5q0 43 15 80t37 62.5t48.5 52.5t48.5 49.5t37 54t15 65.5q0 60 -44.5 101t-113.5 41q-74 0 -120 -50t-46 -149v-1063h-139z" />
<glyph unicode="&#xe0;" horiz-adv-x="768" d="M68 305q0 147 69.5 236.5t184.5 89.5q56 0 108 -30t84 -93v170q0 107 -35.5 161t-118.5 54q-103 0 -194 -105l-60 101q58 64 131 94.5t146 30.5q137 0 203.5 -76t66.5 -233v-705h-139v104q-32 -65 -84 -97t-108 -32q-115 0 -184.5 91t-69.5 239zM190 1434h140l159 -295 h-94zM211 303q0 -97 38 -161t111 -64q110 0 154 123v200q-45 127 -154 127q-73 0 -111 -64t-38 -161z" />
<glyph unicode="&#xe1;" horiz-adv-x="768" d="M68 305q0 147 69.5 236.5t184.5 89.5q56 0 108 -30t84 -93v170q0 107 -35.5 161t-118.5 54q-103 0 -194 -105l-60 101q58 64 131 94.5t146 30.5q137 0 203.5 -76t66.5 -233v-705h-139v104q-32 -65 -84 -97t-108 -32q-115 0 -184.5 91t-69.5 239zM211 303q0 -97 38 -161 t111 -64q110 0 154 123v200q-45 127 -154 127q-73 0 -111 -64t-38 -161zM285 1139l161 295h138l-205 -295h-94z" />
<glyph unicode="&#xe2;" horiz-adv-x="768" d="M68 305q0 147 69.5 236.5t184.5 89.5q56 0 108 -30t84 -93v170q0 107 -35.5 161t-118.5 54q-103 0 -194 -105l-60 101q58 64 131 94.5t146 30.5q137 0 203.5 -76t66.5 -233v-705h-139v104q-32 -65 -84 -97t-108 -32q-115 0 -184.5 91t-69.5 239zM184 1139l133 295h138 l141 -295h-86l-123 215l-119 -215h-84zM211 303q0 -97 38 -161t111 -64q110 0 154 123v200q-45 127 -154 127q-73 0 -111 -64t-38 -161z" />
<glyph unicode="&#xe3;" horiz-adv-x="768" d="M68 305q0 147 69.5 236.5t184.5 89.5q56 0 108 -30t84 -93v170q0 107 -35.5 161t-118.5 54q-103 0 -194 -105l-60 101q58 64 131 94.5t146 30.5q137 0 203.5 -76t66.5 -233v-705h-139v104q-32 -65 -84 -97t-108 -32q-115 0 -184.5 91t-69.5 239zM156 1147 q0 123 37.5 198.5t111.5 75.5q38 0 63.5 -30.5t35.5 -66.5t26.5 -66.5t38.5 -30.5q70 0 70 182h82q0 -121 -38.5 -197.5t-113.5 -76.5q-38 0 -63 30.5t-35 66.5t-26.5 66.5t-39.5 30.5q-69 0 -69 -182h-80zM211 303q0 -97 38 -161t111 -64q110 0 154 123v200 q-45 127 -154 127q-73 0 -111 -64t-38 -161z" />
<glyph unicode="&#xe4;" horiz-adv-x="768" d="M68 305q0 147 69.5 236.5t184.5 89.5q56 0 108 -30t84 -93v170q0 107 -35.5 161t-118.5 54q-103 0 -194 -105l-60 101q58 64 131 94.5t146 30.5q137 0 203.5 -76t66.5 -233v-705h-139v104q-32 -65 -84 -97t-108 -32q-115 0 -184.5 91t-69.5 239zM152 1235q0 37 26.5 63.5 t61.5 26.5q37 0 63.5 -26.5t26.5 -63.5t-26.5 -62.5t-63.5 -25.5q-36 0 -62 26t-26 62zM211 303q0 -97 38 -161t111 -64q110 0 154 123v200q-45 127 -154 127q-73 0 -111 -64t-38 -161zM440 1235q0 37 26.5 63.5t61.5 26.5q37 0 63.5 -26.5t26.5 -63.5t-26.5 -62.5 t-63.5 -25.5q-36 0 -62 26t-26 62z" />
<glyph unicode="&#xe5;" horiz-adv-x="768" d="M68 305q0 147 69.5 236.5t184.5 89.5q56 0 108 -30t84 -93v170q0 107 -35.5 161t-118.5 54q-103 0 -194 -105l-60 101q58 64 131 94.5t146 30.5q137 0 203.5 -76t66.5 -233v-705h-139v104q-32 -65 -84 -97t-108 -32q-115 0 -184.5 91t-69.5 239zM211 303q0 -97 38 -161 t111 -64q110 0 154 123v200q-45 127 -154 127q-73 0 -111 -64t-38 -161zM215 1292q0 70 49.5 120t120.5 50q70 0 119 -49.5t49 -120.5t-49 -120.5t-119 -49.5q-71 0 -120.5 50t-49.5 120zM289 1292q0 -40 28 -68t68 -28t68 28t28 68t-28 68.5t-68 28.5t-68 -28.5t-28 -68.5z " />
<glyph unicode="&#xe6;" horiz-adv-x="1196" d="M68 301q0 148 69.5 239t184.5 91q56 0 108 -30t84 -93v170q0 107 -35.5 161t-118.5 54q-103 0 -194 -105l-60 101q58 64 131 94.5t146 30.5q97 0 148 -40.5t75 -115.5q28 71 83.5 113.5t137.5 42.5q80 0 139 -40.5t94 -113t51.5 -163.5t16.5 -201v-47h-479 q2 -163 57 -260t158 -97q44 0 87 32t75 89l84 -76q-46 -76 -113.5 -119t-144.5 -43q-177 0 -274 181q-93 -181 -256 -181q-115 0 -184.5 89t-69.5 237zM211 303q0 -108 39.5 -166.5t109.5 -58.5q60 0 106 40.5t71 112.5q-23 82 -23 170q-45 127 -154 127q-69 0 -109 -59 t-40 -166zM649 553h342q0 63 -8 119.5t-26 109.5t-53 84t-83 31q-49 0 -85 -33t-53.5 -88t-25.5 -110t-8 -113z" />
<glyph unicode="&#xe7;" horiz-adv-x="649" d="M78 496q0 229 84.5 373.5t238.5 144.5q120 0 203 -90l-57 -107q-58 72 -127 72q-68 0 -114 -57.5t-64.5 -142.5t-18.5 -193q0 -79 11 -148t33.5 -125.5t61.5 -89.5t91 -33q71 0 127 72l57 -106q-66 -78 -164 -89l-34 -88q27 21 59 21q47 0 78.5 -37t31.5 -96 q0 -71 -51.5 -116.5t-128.5 -45.5q-84 0 -157 59l34 72q61 -55 121 -55q39 0 67.5 24.5t28.5 63.5q0 32 -15.5 50.5t-43.5 18.5q-29 0 -57 -28l-64 35l45 125q-133 23 -204.5 164t-71.5 352z" />
<glyph unicode="&#xe8;" horiz-adv-x="763" d="M78 496q0 148 32 262t104 185t177 71q65 0 117 -26.5t87 -73t58 -112.5t33 -141.5t10 -162.5v-49h-479q2 -164 56 -260.5t157 -96.5q45 0 88.5 31.5t75.5 89.5l82 -76q-47 -76 -113 -119t-143 -43q-168 0 -255 143t-87 378zM199 1434h139l160 -295h-95zM217 553h340 q0 64 -7.5 120.5t-25.5 109t-53 83.5t-84 31t-84 -33t-52.5 -87.5t-25.5 -109.5t-8 -114z" />
<glyph unicode="&#xe9;" horiz-adv-x="763" d="M78 496q0 148 32 262t104 185t177 71q65 0 117 -26.5t87 -73t58 -112.5t33 -141.5t10 -162.5v-49h-479q2 -164 56 -260.5t157 -96.5q45 0 88.5 31.5t75.5 89.5l82 -76q-47 -76 -113 -119t-143 -43q-168 0 -255 143t-87 378zM217 553h340q0 64 -7.5 120.5t-25.5 109 t-53 83.5t-84 31t-84 -33t-52.5 -87.5t-25.5 -109.5t-8 -114zM291 1139l162 295h137l-205 -295h-94z" />
<glyph unicode="&#xea;" horiz-adv-x="763" d="M78 496q0 148 32 262t104 185t177 71q65 0 117 -26.5t87 -73t58 -112.5t33 -141.5t10 -162.5v-49h-479q2 -164 56 -260.5t157 -96.5q45 0 88.5 31.5t75.5 89.5l82 -76q-47 -76 -113 -119t-143 -43q-168 0 -255 143t-87 378zM186 1139l133 295h138l141 -295h-86l-123 215 l-119 -215h-84zM217 553h340q0 64 -7.5 120.5t-25.5 109t-53 83.5t-84 31t-84 -33t-52.5 -87.5t-25.5 -109.5t-8 -114z" />
<glyph unicode="&#xeb;" horiz-adv-x="763" d="M78 496q0 148 32 262t104 185t177 71q65 0 117 -26.5t87 -73t58 -112.5t33 -141.5t10 -162.5v-49h-479q2 -164 56 -260.5t157 -96.5q45 0 88.5 31.5t75.5 89.5l82 -76q-47 -76 -113 -119t-143 -43q-168 0 -255 143t-87 378zM154 1235q0 37 26.5 63.5t61.5 26.5 q37 0 63.5 -26.5t26.5 -63.5t-26.5 -62.5t-63.5 -25.5q-36 0 -62 26t-26 62zM217 553h340q0 64 -7.5 120.5t-25.5 109t-53 83.5t-84 31t-84 -33t-52.5 -87.5t-25.5 -109.5t-8 -114zM442 1235q0 37 26.5 63.5t61.5 26.5q37 0 64 -26.5t27 -63.5q0 -36 -27 -62t-64 -26 q-36 0 -62 26t-26 62z" />
<glyph unicode="&#xec;" horiz-adv-x="368" d="M-10 1434h139l160 -295h-94zM115 0v989h139v-989h-139z" />
<glyph unicode="&#xed;" horiz-adv-x="368" d="M82 1139l162 295h137l-205 -295h-94zM115 0v989h139v-989h-139z" />
<glyph unicode="&#xee;" horiz-adv-x="368" d="M-18 1139l133 295h137l141 -295h-86l-123 215l-118 -215h-84zM115 0v989h139v-989h-139z" />
<glyph unicode="&#xef;" horiz-adv-x="368" d="M-49 1235q0 37 26.5 63.5t61.5 26.5q37 0 63.5 -26.5t26.5 -63.5t-26.5 -62.5t-63.5 -25.5q-36 0 -62 26t-26 62zM115 0v989h139v-989h-139zM240 1235q0 37 26.5 63.5t61.5 26.5q37 0 63.5 -26.5t26.5 -63.5t-26.5 -62.5t-63.5 -25.5q-36 0 -62 26t-26 62z" />
<glyph unicode="&#xf0;" horiz-adv-x="782" d="M78 481q0 140 27.5 250t93 182t161.5 72q116 0 170 -125q-27 126 -90 281l-198 -90l-37 77l201 89q-52 101 -72 133l127 61q21 -36 71 -137l142 63l35 -75l-142 -64q138 -334 138 -676q0 -118 -17.5 -214.5t-54 -172.5t-98 -118t-144.5 -42q-82 0 -144 41.5t-98 113.5 t-53.5 160t-17.5 191zM223 481q0 -76 8 -140t26.5 -120.5t52.5 -88.5t81 -32q48 0 82 32t52 89t26 120.5t8 139.5q0 75 -8 138.5t-26 120.5t-52 89.5t-82 32.5q-47 0 -81 -32.5t-52.5 -89t-26.5 -120.5t-8 -139z" />
<glyph unicode="&#xf1;" d="M115 0v989h139v-139q34 69 95 116.5t126 47.5q96 0 140 -54t44 -161v-799h-139v760q0 129 -94 129q-54 0 -100.5 -47.5t-71.5 -114.5v-727h-139zM160 1147q0 123 37.5 198.5t111.5 75.5q38 0 63.5 -30.5t35.5 -66.5t26.5 -66.5t38.5 -30.5q70 0 70 182h82 q0 -121 -38.5 -197.5t-113.5 -76.5q-38 0 -63 30.5t-35 66.5t-26.5 66.5t-39.5 30.5q-69 0 -69 -182h-80z" />
<glyph unicode="&#xf2;" horiz-adv-x="782" d="M78 496q0 106 17.5 196.5t53.5 164t98 115.5t144 42t144 -42t98.5 -115.5t54 -164t17.5 -196.5q0 -84 -10.5 -159t-34.5 -142t-60 -115t-89.5 -76.5t-119.5 -28.5q-82 0 -144 42.5t-98 116.5t-53.5 165t-17.5 197zM197 1434h139l160 -295h-95zM223 496q0 -80 8 -146.5 t26 -125t52 -91.5t82 -33q168 0 168 396q0 393 -168 393q-48 0 -82 -32.5t-52 -91t-26 -124t-8 -145.5z" />
<glyph unicode="&#xf3;" horiz-adv-x="782" d="M78 496q0 106 17.5 196.5t53.5 164t98 115.5t144 42t144 -42t98.5 -115.5t54 -164t17.5 -196.5q0 -84 -10.5 -159t-34.5 -142t-60 -115t-89.5 -76.5t-119.5 -28.5q-82 0 -144 42.5t-98 116.5t-53.5 165t-17.5 197zM223 496q0 -80 8 -146.5t26 -125t52 -91.5t82 -33 q168 0 168 396q0 393 -168 393q-48 0 -82 -32.5t-52 -91t-26 -124t-8 -145.5zM289 1139l162 295h137l-205 -295h-94z" />
<glyph unicode="&#xf4;" horiz-adv-x="782" d="M78 496q0 106 17.5 196.5t53.5 164t98 115.5t144 42t144 -42t98.5 -115.5t54 -164t17.5 -196.5q0 -84 -10.5 -159t-34.5 -142t-60 -115t-89.5 -76.5t-119.5 -28.5q-82 0 -144 42.5t-98 116.5t-53.5 165t-17.5 197zM186 1139l133 295h138l141 -295h-86l-123 215l-119 -215 h-84zM223 496q0 -80 8 -146.5t26 -125t52 -91.5t82 -33q168 0 168 396q0 393 -168 393q-48 0 -82 -32.5t-52 -91t-26 -124t-8 -145.5z" />
<glyph unicode="&#xf5;" horiz-adv-x="782" d="M78 496q0 106 17.5 196.5t53.5 164t98 115.5t144 42t144 -42t98.5 -115.5t54 -164t17.5 -196.5q0 -84 -10.5 -159t-34.5 -142t-60 -115t-89.5 -76.5t-119.5 -28.5q-82 0 -144 42.5t-98 116.5t-53.5 165t-17.5 197zM160 1147q0 123 37.5 198.5t111.5 75.5q38 0 63.5 -30.5 t35.5 -66.5t26.5 -66.5t38.5 -30.5q70 0 70 182h82q0 -121 -38.5 -197.5t-113.5 -76.5q-38 0 -63 30.5t-35 66.5t-26.5 66.5t-39.5 30.5q-69 0 -69 -182h-80zM223 496q0 -80 8 -146.5t26 -125t52 -91.5t82 -33q168 0 168 396q0 393 -168 393q-48 0 -82 -32.5t-52 -91 t-26 -124t-8 -145.5z" />
<glyph unicode="&#xf6;" horiz-adv-x="782" d="M78 496q0 106 17.5 196.5t53.5 164t98 115.5t144 42t144 -42t98.5 -115.5t54 -164t17.5 -196.5q0 -84 -10.5 -159t-34.5 -142t-60 -115t-89.5 -76.5t-119.5 -28.5q-82 0 -144 42.5t-98 116.5t-53.5 165t-17.5 197zM160 1235q0 37 26.5 63.5t61.5 26.5q37 0 63.5 -26.5 t26.5 -63.5t-26.5 -62.5t-63.5 -25.5q-36 0 -62 26t-26 62zM223 496q0 -80 8 -146.5t26 -125t52 -91.5t82 -33q168 0 168 396q0 393 -168 393q-48 0 -82 -32.5t-52 -91t-26 -124t-8 -145.5zM449 1235q0 37 26.5 63.5t61.5 26.5q37 0 63.5 -26.5t26.5 -63.5t-26.5 -62.5 t-63.5 -25.5q-36 0 -62 26t-26 62z" />
<glyph unicode="&#xf7;" horiz-adv-x="765" d="M59 641v100h648v-100h-648zM297 393q0 37 25.5 63.5t62.5 26.5q38 0 64 -26.5t26 -63.5t-26 -63.5t-64 -26.5q-37 0 -62.5 26.5t-25.5 63.5zM297 979q0 37 25.5 63.5t62.5 26.5q38 0 64 -26.5t26 -63.5t-26 -63.5t-64 -26.5q-37 0 -62.5 26.5t-25.5 63.5z" />
<glyph unicode="&#xf8;" horiz-adv-x="782" d="M78 496q0 106 17.5 196.5t53.5 164t98 115.5t144 42q105 0 180 -72l25 47h92l-61 -121q78 -141 78 -372q0 -84 -10.5 -159t-34.5 -142t-60 -115t-89.5 -76.5t-119.5 -28.5q-108 0 -180 72l-25 -47h-92l62 121q-78 136 -78 375zM223 496q0 -120 17 -209l266 524 q-45 78 -115 78q-48 0 -82 -32.5t-52 -91t-26 -124t-8 -145.5zM276 178q40 -78 115 -78q168 0 168 396q0 122 -16 206z" />
<glyph unicode="&#xf9;" d="M115 190v799h139v-762q0 -127 94 -127q54 0 100.5 46t71.5 112v731h139v-989h-139v135q-34 -70 -93 -115t-128 -45q-97 0 -140.5 52.5t-43.5 162.5zM195 1434h139l160 -295h-95z" />
<glyph unicode="&#xfa;" d="M115 190v799h139v-762q0 -127 94 -127q54 0 100.5 46t71.5 112v731h139v-989h-139v135q-34 -70 -93 -115t-128 -45q-97 0 -140.5 52.5t-43.5 162.5zM285 1139l161 295h138l-205 -295h-94z" />
<glyph unicode="&#xfb;" d="M115 190v799h139v-762q0 -127 94 -127q54 0 100.5 46t71.5 112v731h139v-989h-139v135q-34 -70 -93 -115t-128 -45q-97 0 -140.5 52.5t-43.5 162.5zM184 1139l133 295h138l141 -295h-86l-123 215l-119 -215h-84z" />
<glyph unicode="&#xfc;" d="M115 190v799h139v-762q0 -127 94 -127q54 0 100.5 46t71.5 112v731h139v-989h-139v135q-34 -70 -93 -115t-128 -45q-97 0 -140.5 52.5t-43.5 162.5zM158 1235q0 37 26.5 63.5t61.5 26.5q37 0 63.5 -26.5t26.5 -63.5t-26.5 -62.5t-63.5 -25.5q-36 0 -62 26t-26 62z M446 1235q0 37 27 63.5t62 26.5q37 0 63.5 -26.5t26.5 -63.5t-26.5 -62.5t-63.5 -25.5q-36 0 -62.5 26t-26.5 62z" />
<glyph unicode="&#xfd;" horiz-adv-x="667" d="M18 989h150l164 -809l168 809h149l-295 -1204q-28 -105 -75 -145.5t-125 -40.5q-54 0 -86 14l22 123q21 -12 47 -12q36 0 55 20t33 70l37 155zM229 1139l162 295h137l-204 -295h-95z" />
<glyph unicode="&#xfe;" horiz-adv-x="786" d="M115 -377v1743h139v-502q32 74 80 112t106 38q91 0 152.5 -67.5t90 -181.5t28.5 -269q0 -235 -68.5 -378t-202.5 -143q-57 0 -107 37.5t-79 116.5v-506h-139zM254 266q20 -67 63 -116.5t89 -49.5q157 0 157 396q0 393 -157 393q-46 0 -89.5 -48t-62.5 -116v-459z" />
<glyph unicode="&#xff;" horiz-adv-x="667" d="M18 989h150l164 -809l168 809h149l-295 -1204q-28 -105 -75 -145.5t-125 -40.5q-54 0 -86 14l22 123q21 -12 47 -12q36 0 55 20t33 70l37 155zM100 1235q0 37 26.5 63.5t61.5 26.5q37 0 64 -26.5t27 -63.5q0 -36 -27 -62t-64 -26q-36 0 -62 26t-26 62zM389 1235 q0 37 26.5 63.5t61.5 26.5q37 0 63.5 -26.5t26.5 -63.5t-26.5 -62.5t-63.5 -25.5q-36 0 -62 26t-26 62z" />
<glyph unicode="&#x152;" horiz-adv-x="1216" d="M88 682q0 152 18 275t55.5 221.5t103.5 153t155 54.5q34 0 67.5 -11t72 -48t63.5 -96v135h505v-137h-352v-461h338v-137h-338v-494h352v-137h-505v135q-36 -87 -92 -123.5t-111 -36.5q-89 0 -155 55t-103.5 154.5t-55.5 223t-18 274.5zM248 682q0 -567 196 -567 q62 0 109 66t70 184v636q-23 118 -69.5 182t-109.5 64q-196 0 -196 -565z" />
<glyph unicode="&#x153;" horiz-adv-x="1245" d="M78 496q0 106 17.5 196.5t53.5 164t98 115.5t144 42q171 0 242 -219q66 219 239 219q81 0 141.5 -40.5t95.5 -113t52 -163.5t17 -201v-47h-480q0 -163 55 -260t158 -97q45 0 88.5 31.5t75.5 89.5l82 -76q-47 -76 -113 -119t-143 -43q-102 0 -165.5 57.5t-100.5 168.5 q-73 -226 -244 -226q-82 0 -144 42.5t-98 116.5t-53.5 165t-17.5 197zM223 496q0 -80 8 -146.5t26 -125.5t52 -92.5t82 -33.5q168 0 168 398q0 393 -168 393q-48 0 -82 -32.5t-52 -91t-26 -124t-8 -145.5zM698 553h340q0 64 -7.5 120t-25.5 109t-53 84t-84 31t-84 -33 t-52.5 -87.5t-25.5 -110t-8 -113.5z" />
<glyph unicode="&#x178;" horiz-adv-x="761" d="M-2 1366h166l217 -629l219 629h164l-305 -786v-580h-156v580zM154 1581q0 37 26.5 63.5t61.5 26.5q37 0 63.5 -26.5t26.5 -63.5t-26.5 -62.5t-63.5 -25.5q-36 0 -62 26t-26 62zM442 1581q0 37 26.5 63.5t61.5 26.5q37 0 64 -26.5t27 -63.5q0 -36 -27 -62t-64 -26 q-36 0 -62 26t-26 62z" />
<glyph unicode="&#x2c6;" horiz-adv-x="411" d="M0 1139l133 295h137l142 -295h-86l-123 215l-119 -215h-84z" />
<glyph unicode="&#x2dc;" horiz-adv-x="464" d="M0 1147q0 122 37.5 198t112.5 76q38 0 63.5 -30.5t35 -66.5t26 -66.5t38.5 -30.5q70 0 70 182h82q0 -121 -38.5 -197.5t-113.5 -76.5q-38 0 -63 30.5t-34.5 66.5t-26 66.5t-39.5 30.5q-32 0 -51 -45t-19 -137h-80z" />
<glyph unicode="&#x2000;" horiz-adv-x="893" />
<glyph unicode="&#x2001;" horiz-adv-x="1786" />
<glyph unicode="&#x2002;" horiz-adv-x="893" />
<glyph unicode="&#x2003;" horiz-adv-x="1786" />
<glyph unicode="&#x2004;" horiz-adv-x="595" />
<glyph unicode="&#x2005;" horiz-adv-x="446" />
<glyph unicode="&#x2006;" horiz-adv-x="297" />
<glyph unicode="&#x2007;" horiz-adv-x="297" />
<glyph unicode="&#x2008;" horiz-adv-x="223" />
<glyph unicode="&#x2009;" horiz-adv-x="357" />
<glyph unicode="&#x200a;" horiz-adv-x="99" />
<glyph unicode="&#x2010;" horiz-adv-x="481" d="M61 434v123h359v-123h-359z" />
<glyph unicode="&#x2011;" horiz-adv-x="481" d="M61 434v123h359v-123h-359z" />
<glyph unicode="&#x2012;" horiz-adv-x="481" d="M61 434v123h359v-123h-359z" />
<glyph unicode="&#x2013;" horiz-adv-x="942" d="M61 434v123h820v-123h-820z" />
<glyph unicode="&#x2014;" horiz-adv-x="1310" d="M61 434v123h1188v-123h-1188z" />
<glyph unicode="&#x2018;" horiz-adv-x="466" d="M119 1087q0 89 45 169t115 130l71 -57q-50 -34 -86.5 -87.5t-40.5 -102.5l9 2q10 2 16 2q40 0 67 -29t27 -72q0 -42 -30 -72t-74 -30q-50 0 -84.5 39.5t-34.5 107.5z" />
<glyph unicode="&#x2019;" horiz-adv-x="466" d="M117 997q50 32 86.5 87t40.5 104q-4 -4 -23 -4q-41 0 -67.5 28t-26.5 70q0 43 29 73.5t73 30.5q50 0 84.5 -40t34.5 -109q0 -87 -45 -167t-115 -132z" />
<glyph unicode="&#x201a;" horiz-adv-x="466" d="M117 -199q50 34 86.5 88t40.5 103l-9 -2q-9 -2 -14 -2q-41 0 -67.5 28.5t-26.5 71.5q0 42 29 72t73 30q50 0 84.5 -39.5t34.5 -107.5q0 -89 -45 -169t-115 -130z" />
<glyph unicode="&#x201c;" horiz-adv-x="782" d="M119 1087q0 89 45 169.5t115 129.5l71 -57q-50 -34 -86.5 -87.5t-42.5 -102.5l10 2q10 2 15 2q40 0 67 -29t27 -72q0 -42 -30 -72t-72 -30q-50 0 -84.5 39.5t-34.5 107.5zM434 1087q0 89 45.5 169t116.5 130l72 -57q-51 -35 -88 -88t-41 -102l9 2q9 2 15 2q40 0 67 -29 t27 -72q0 -42 -30 -72t-74 -30q-50 0 -84.5 39.5t-34.5 107.5z" />
<glyph unicode="&#x201d;" horiz-adv-x="782" d="M117 997q50 32 86.5 87t40.5 104q-4 -4 -23 -4q-41 0 -67.5 28t-26.5 70q0 43 29 73.5t73 30.5q50 0 84.5 -40t34.5 -109q0 -87 -45 -167t-115 -132zM432 997q50 33 87.5 87.5t41.5 103.5q-4 -4 -24 -4q-40 0 -67.5 28.5t-27.5 69.5q0 43 30.5 73.5t74.5 30.5 q50 0 83.5 -40t33.5 -109q0 -87 -44.5 -167t-115.5 -132z" />
<glyph unicode="&#x201e;" horiz-adv-x="782" d="M117 -199q50 34 86.5 88t40.5 103l-9 -2q-9 -2 -14 -2q-41 0 -67.5 28.5t-26.5 71.5q0 42 29 72t73 30q50 0 84.5 -39.5t34.5 -107.5q0 -89 -45 -169t-115 -130zM432 -199q50 34 87.5 88t41.5 103l-9 -2q-9 -2 -15 -2q-40 0 -67.5 28.5t-27.5 71.5q0 42 30.5 72t74.5 30 q49 0 83 -39.5t34 -107.5q0 -89 -45 -169.5t-115 -129.5z" />
<glyph unicode="&#x2022;" horiz-adv-x="733" d="M152 496q0 91 63 154t154 63t154 -63t63 -154q0 -89 -63 -152t-154 -63t-154 63t-63 152z" />
<glyph unicode="&#x2026;" horiz-adv-x="1392" d="M125 86q0 43 31.5 73.5t74.5 30.5q44 0 75.5 -30.5t31.5 -73.5t-31.5 -74.5t-75.5 -31.5q-43 0 -74.5 31.5t-31.5 74.5zM590 86q0 43 31.5 73.5t74.5 30.5t75 -31t32 -73q0 -43 -32 -74.5t-75 -31.5t-74.5 31.5t-31.5 74.5zM1055 86q0 43 30.5 73.5t73.5 30.5 q44 0 76.5 -30.5t32.5 -73.5t-32.5 -74.5t-76.5 -31.5q-43 0 -73.5 31.5t-30.5 74.5z" />
<glyph unicode="&#x202f;" horiz-adv-x="357" />
<glyph unicode="&#x2039;" horiz-adv-x="425" d="M61 498l185 362h119l-185 -362l185 -369h-119z" />
<glyph unicode="&#x203a;" horiz-adv-x="425" d="M61 129l185 369l-185 362h119l185 -362l-185 -369h-119z" />
<glyph unicode="&#x205f;" horiz-adv-x="446" />
<glyph unicode="&#x20ac;" horiz-adv-x="825" d="M33 487v101h84q-2 31 -2 94q0 65 2 98h-84v101h90q25 236 111 372t237 136q62 0 111 -22t82 -63t53 -82.5t37 -95.5l-127 -49q-27 88 -61.5 130t-94.5 42q-158 0 -188 -368h243v-101h-250q-2 -33 -2 -98q0 -63 2 -94h250v-101h-245q34 -372 190 -372q67 0 103 54t57 153 l129 -48q-71 -299 -289 -299q-103 0 -177.5 67t-114.5 178.5t-56 266.5h-90z" />
<glyph unicode="&#x2122;" horiz-adv-x="765" d="M35 1313v53h229v-53h-86v-398h-57v398h-86zM338 915v451h88l90 -322l90 322h88v-451h-57v373l-113 -373h-16l-113 373v-373h-57z" />
<glyph unicode="&#x25fc;" horiz-adv-x="993" d="M0 0v993h993v-993h-993z" />
</font>
</defs>
</svg>
